<svg width="36" height="36" viewBox="0 0 36 36" fill="none" xmlns="http://www.w3.org/2000/svg">
<circle cx="18" cy="18" r="17" fill="#272727" stroke="black" stroke-width="2"/>
<path fill-rule="evenodd" clip-rule="evenodd" d="M10.7617 9H21.9046C23.3251 9 24.476 10.1518 24.476 11.5714V15.8571C24.476 16.5153 24.1538 17.1136 23.708 17.5679C23.4833 17.7967 23.4832 18.1968 23.7074 18.426C24.1536 18.8822 24.476 19.4844 24.476 20.1429V24.4286C24.476 25.8482 23.3251 27 21.9046 27H10.7617V26.1429C11.2351 26.1429 11.6189 25.7591 11.6189 25.2857V10.7143C11.6189 10.2409 11.2351 9.85714 10.7617 9.85714V9ZM15.9047 11.1412C15.4314 11.1412 15.0476 11.5249 15.0476 11.9983V15.4269C15.0476 15.9003 15.4314 16.284 15.9047 16.284C16.3781 16.284 16.7619 16.6678 16.7619 17.1412V18.8555C16.7619 19.3289 16.3781 19.7126 15.9047 19.7126C15.4314 19.7126 15.0476 20.0964 15.0476 20.5698V23.9983C15.0476 24.4717 15.4314 24.8555 15.9047 24.8555H20.1905C20.6638 24.8555 21.0476 24.4717 21.0476 23.9983V20.5698C21.0476 20.0964 20.6638 19.7126 20.1905 19.7126C19.7171 19.7126 19.3333 19.3289 19.3333 18.8555V17.1412C19.3333 16.6678 19.7171 16.284 20.1905 16.284C20.6638 16.284 21.0476 15.9003 21.0476 15.4269V11.9983C21.0476 11.5249 20.6638 11.1412 20.1905 11.1412H15.9047Z" fill="#FFAA0D"/>
</svg>