<svg width="36" height="36" viewBox="0 0 36 36" fill="none" xmlns="http://www.w3.org/2000/svg">
<circle cx="18" cy="18" r="17" fill="white" stroke="black" stroke-width="2"/>
<g clip-path="url(#clip0-949154)">
<path d="M13.1687 27.9792C11.0824 27.9792 9.20006 26.7243 8.40006 24.7949C7.60006 22.8655 8.03928 20.6459 9.52163 19.1714L9.56085 19.1322L16.3922 12.3008L17.5059 13.4145L10.6432 20.2851C9.70987 21.1871 9.3334 22.5204 9.66281 23.7753C9.99222 25.0302 10.9726 26.0106 12.2275 26.34C13.4824 26.6694 14.8157 26.2929 15.7177 25.3674C15.7334 25.3518 16.3765 24.7086 16.3765 24.7086L17.4903 25.8223L16.8314 26.489C15.851 27.438 14.5412 27.9792 13.1687 27.9792Z" fill="#E65125"/>
<path d="M22.5805 17.491L15.7099 10.6204C14.8001 9.7184 13.4825 9.36546 12.2433 9.69487C11.004 10.0243 10.0393 10.9968 9.70208 12.2282C9.37267 13.4674 9.72561 14.7851 10.6276 15.6949L11.2864 16.3537L10.1727 17.4674L9.51384 16.8086C8.21188 15.5066 7.70208 13.6008 8.18051 11.8204C8.65894 10.04 10.0472 8.64389 11.8276 8.1733C13.608 7.70272 15.5138 8.20468 16.8158 9.50664L16.855 9.54585L23.6942 16.3772L22.5805 17.491Z" fill="#F9BA16"/>
<path d="M19.6235 23.702L18.5098 22.5961L25.3804 15.7255C26.7451 14.3216 26.7215 12.0785 25.3411 10.6902C23.9529 9.30199 21.7176 9.2863 20.3058 10.651L19.647 11.3098L18.5333 10.1961L19.1921 9.53728C20.4941 8.23532 22.4 7.72551 24.1804 8.20395C25.9607 8.68238 27.3568 10.0706 27.8274 11.851C28.3058 13.6314 27.796 15.5373 26.4941 16.8392L19.6235 23.702Z" fill="#7AC6C0"/>
<path d="M22.8399 28.0019C21.4674 28.0098 20.1576 27.4608 19.1929 26.4882L12.3223 19.6176L13.436 18.5039L20.3066 25.3745C21.7105 26.7784 23.9772 26.7784 25.3811 25.3745C26.785 23.9706 26.785 21.7039 25.3811 20.3L24.7223 19.6412L25.836 18.5274L26.4948 19.1863C27.9693 20.6608 28.4164 22.8804 27.6164 24.8098C26.8085 26.7392 24.9262 28.0019 22.8399 28.0019Z" fill="#39A9E0"/>
</g>
<defs>
<clipPath id="clip0-949154">
<rect width="20" height="20" fill="white" transform="translate(8 8)"/>
</clipPath>
</defs>
</svg>