<svg width="36" height="36" viewBox="0 0 36 36" fill="none" xmlns="http://www.w3.org/2000/svg">
<circle cx="18" cy="18" r="17" fill="#073387" stroke="black" stroke-width="2"/>
<path fill-rule="evenodd" clip-rule="evenodd" d="M20.2057 9.59188C20.7975 9.27786 21.3573 9.125 21.8868 9.125C22.4223 9.125 22.849 9.24976 23.1779 9.48796L23.1807 9.48989C23.5054 9.71383 23.6568 9.99331 23.6568 10.3365C23.6568 10.631 23.578 10.8788 23.4249 11.0866L23.4219 11.0909C23.2795 11.2991 23.1279 11.3804 22.9667 11.3804C22.8688 11.3804 22.8064 11.3447 22.7597 11.2683C22.6897 11.1394 22.5875 10.9116 22.4522 10.5796C22.3364 10.2838 22.1907 10.0466 22.0099 9.87809C21.8312 9.68693 21.5998 9.59286 21.3281 9.59286C20.8661 9.59286 20.4839 9.84947 20.1805 10.3112L20.179 10.3137C19.8948 10.7658 19.6171 11.4644 19.3429 12.399C19.1934 12.91 19.0746 13.3847 18.9868 13.8232C18.9622 13.9217 18.9433 14.0017 18.9306 14.0626C18.9189 14.1181 18.9088 14.1725 18.9088 14.2094V14.2466C18.9088 14.3484 18.943 14.4477 19.0304 14.5164C19.111 14.5798 19.215 14.5992 19.3172 14.5992C19.5446 14.5992 19.8698 14.5866 20.2913 14.5619L21.1811 14.5437L21.1881 14.5576L21.205 14.5745C21.2056 14.5751 21.2083 14.5779 21.2112 14.5866C21.2144 14.5961 21.2176 14.6123 21.2176 14.6377C21.2176 14.6865 21.1817 14.7895 21.059 14.9614L21.0569 14.9643L21.0549 14.9674C21.0035 15.0473 20.9589 15.0986 20.9223 15.1287C20.8861 15.1585 20.8671 15.1602 20.8627 15.1602L19.2968 15.1974C19.0883 15.1976 18.907 15.2295 18.7734 15.313L18.7695 15.3154L18.7658 15.3181C18.6437 15.4052 18.5667 15.5379 18.5233 15.6958C17.7397 18.3555 17.5723 19.1782 17.055 21.7207L16.9792 22.0933L16.9785 22.0967L16.978 22.1002C16.908 22.5517 16.7119 23.0954 16.4863 23.61C16.2616 24.1223 16.0119 24.5962 15.8407 24.9056C15.5009 25.5195 15.1379 26.0106 14.753 26.3825L14.7513 26.3843C14.3746 26.7609 14.0091 27.0352 13.6556 27.212C13.3613 27.359 13.1276 27.4611 12.9517 27.5213L12.873 27.3291C13.0209 27.2368 13.1847 27.1043 13.3636 26.9362C13.602 26.7254 13.8289 26.4422 14.0454 26.0906C14.2777 25.735 14.4873 25.3014 14.6752 24.7918C14.8751 24.2984 15.2826 23.1255 15.3922 22.4457L16.8348 15.7743C16.8521 15.718 16.8582 15.6537 16.8582 15.5873C16.8582 15.4822 16.8152 15.3864 16.7226 15.3246C16.6405 15.2699 16.536 15.2533 16.4311 15.2533L15.3128 15.2719C15.2363 15.2718 15.2001 15.2574 15.1843 15.247C15.1749 15.2287 15.1638 15.1913 15.1638 15.1218C15.1638 15.0398 15.1959 14.9474 15.2799 14.8423C15.3703 14.7321 15.465 14.6825 15.5658 14.6734L16.777 14.6175L16.781 14.6171C16.9971 14.5955 17.1138 14.4191 17.1694 14.2116L17.3178 13.6922C17.6369 12.6248 18.052 11.7546 18.5601 11.0771C19.0847 10.3818 19.6336 9.88987 20.2048 9.59241L20.2057 9.59188Z" fill="white"/>
</svg>