<svg width="24" height="25" viewBox="0 0 24 25" fill="none" xmlns="http://www.w3.org/2000/svg">
<path d="M11.3582 6.82782C11.0021 6.72907 10.6789 6.55006 10.4096 6.31158L5.65359 14.9496C6.00473 15.0628 6.3208 15.2548 6.58084 15.5047L11.3582 6.82782Z" fill="white"/>
<path d="M7.27069 16.7546C7.3023 16.9097 7.31891 17.0703 7.31891 17.2346C7.31891 17.4417 7.29254 17.6428 7.24298 17.8346H16.8148C16.7653 17.6428 16.7389 17.4417 16.7389 17.2346C16.7389 17.0703 16.7555 16.9097 16.7871 16.7546L7.27069 16.7546Z" fill="white"/>
<path d="M13.5946 6.30586L18.3959 14.9523C18.0452 15.0667 17.7298 15.2598 17.4707 15.5107L12.6478 6.82549C13.0035 6.72547 13.3261 6.54533 13.5946 6.30586Z" fill="white"/>
<path fill-rule="evenodd" clip-rule="evenodd" d="M19.1196 16.2964C18.6124 16.2964 18.1999 16.7093 18.1999 17.2168C18.1999 17.7242 18.6124 18.1371 19.1196 18.1371C19.6267 18.1371 20.0393 17.7242 20.0393 17.2168C20.0393 16.7093 19.6267 16.2964 19.1196 16.2964ZM19.1196 19.2389C18.0053 19.2389 17.0989 18.3318 17.0989 17.2167C17.0989 16.1017 18.0053 15.1946 19.1196 15.1946C20.2338 15.1946 21.1403 16.1017 21.1403 17.2167C21.1403 18.3318 20.2338 19.2389 19.1196 19.2389Z" fill="white"/>
<path fill-rule="evenodd" clip-rule="evenodd" d="M11.9796 3.5764C11.4724 3.5764 11.0599 3.98927 11.0599 4.49675C11.0599 5.00423 11.4724 5.4171 11.9796 5.4171C12.4867 5.4171 12.8993 5.00423 12.8993 4.49675C12.8993 3.98927 12.4867 3.5764 11.9796 3.5764ZM11.9796 6.51889C10.8653 6.51889 9.95891 5.61181 9.95891 4.49675C9.95891 3.38174 10.8653 2.47461 11.9796 2.47461C13.0938 2.47461 14.0003 3.38174 14.0003 4.49675C14.0003 5.61181 13.0938 6.51889 11.9796 6.51889Z" fill="white"/>
<path fill-rule="evenodd" clip-rule="evenodd" d="M4.89957 16.2964C4.39241 16.2964 3.97989 16.7093 3.97989 17.2168C3.97989 17.7242 4.39241 18.1371 4.89957 18.1371C5.40672 18.1371 5.81934 17.7242 5.81934 17.2168C5.81934 16.7093 5.40672 16.2964 4.89957 16.2964ZM4.89957 19.2389C3.78532 19.2389 2.87891 18.3318 2.87891 17.2167C2.87891 16.1017 3.78532 15.1946 4.89957 15.1946C6.01382 15.1946 6.92033 16.1017 6.92033 17.2167C6.92033 18.3318 6.01382 19.2389 4.89957 19.2389Z" fill="white"/>
</svg>