<svg width="24" height="25" viewBox="0 0 24 25" fill="none" xmlns="http://www.w3.org/2000/svg">
<path fill-rule="evenodd" clip-rule="evenodd" d="M12.3609 8.47422V4.87422L15.4786 3.07422L18.5963 4.87422V8.47422L15.4786 10.2742L12.3609 8.47422ZM11.9986 9.01422L8.8809 10.8142V14.4142L11.9986 16.2142L15.1163 14.4142V10.8142L11.9986 9.01422ZM11.9986 10.2613L14.0363 11.4378V13.7907L11.9986 14.9671L9.9609 13.7907V11.4378L11.9986 10.2613ZM15.8409 14.4142L18.9586 16.2142L22.0763 14.4142V10.8142L18.9586 9.01422L15.8409 10.8142V14.4142ZM18.9586 14.9671L16.9209 13.7907V11.4378L18.9586 10.2613L20.9963 11.4378V13.7907L18.9586 14.9671ZM11.6363 20.4742V16.8742L8.51859 15.0742L5.4009 16.8742V20.4742L8.51859 22.2742L11.6363 20.4742ZM8.51859 21.0271L10.5563 19.8507V17.4978L8.51859 16.3213L6.4809 17.4978V19.8507L8.51859 21.0271ZM8.15628 14.4142V10.8142L5.03859 9.01422L1.9209 10.8142V14.4142L5.03859 16.2142L8.15628 14.4142ZM7.07628 11.4378V13.7907L5.03859 14.9671L3.0009 13.7907V11.4378L5.03859 10.2613L7.07628 11.4378ZM8.51859 10.2742L11.6363 8.47422V4.87422L8.51859 3.07422L5.4009 4.87422V8.47422L8.51859 10.2742ZM10.5563 7.85068L8.51859 9.02714L6.4809 7.85068V5.49776L8.51859 4.3213L10.5563 5.49776V7.85068ZM12.3609 20.4742L15.4786 22.2742L18.5963 20.4742V16.8742L15.4786 15.0742L12.3609 16.8742V20.4742ZM13.4409 19.8507V17.4978L15.4786 16.3213L17.5163 17.4978V19.8507L15.4786 21.0271L13.4409 19.8507ZM17.5163 7.85068L15.4786 9.02714L13.4409 7.85068V5.49776L15.4786 4.3213L17.5163 5.49776V7.85068Z" fill="white"/>
</svg>