<svg width="24" height="25" viewBox="0 0 24 25" fill="none" xmlns="http://www.w3.org/2000/svg">
<path d="M11.999 15.9731C12.1847 15.9731 12.3654 15.952 12.539 15.9121V18.4341C12.3654 18.3942 12.1847 18.3731 11.999 18.3731C11.8133 18.3731 11.6326 18.3942 11.459 18.4341V15.9121C11.6326 15.952 11.8133 15.9731 11.999 15.9731Z" fill="white"/>
<path d="M14.3331 5.13672C14.2464 5.49714 14.0784 5.82589 13.8496 6.10248L18.6659 8.51059C18.7526 8.15017 18.9205 7.82142 19.1494 7.54484L14.3331 5.13672Z" fill="white"/>
<path d="M10.1493 6.10248C9.92052 5.82589 9.75254 5.49714 9.66589 5.13672L4.84961 7.54484C5.07842 7.82142 5.2464 8.15017 5.33306 8.51059L10.1493 6.10248Z" fill="white"/>
<path d="M5.33308 9.63668C5.24643 9.9971 5.07846 10.3259 4.84966 10.6024L9.66591 13.0106C9.75257 12.6501 9.92056 12.3214 10.1494 12.0448L5.33308 9.63668Z" fill="white"/>
<path d="M19.1493 10.6024L14.333 13.0106C14.2464 12.6501 14.0784 12.3214 13.8496 12.0448L18.6659 9.63668C18.7525 9.9971 18.9205 10.3259 19.1493 10.6024Z" fill="white"/>
<path fill-rule="evenodd" clip-rule="evenodd" d="M10.2292 21.7661C9.67203 20.8011 10.0044 19.5626 10.9701 19.0051C11.9357 18.4476 13.1745 18.779 13.7316 19.7439C14.2887 20.7089 13.9564 21.9475 12.9908 22.5051C12.0251 23.0626 10.7863 22.7311 10.2292 21.7661ZM12.7774 20.2948C12.5238 19.8556 11.96 19.7048 11.5205 19.9586C11.0811 20.2123 10.9298 20.776 11.1833 21.2152C11.4369 21.6544 12.0008 21.8053 12.4403 21.5516C12.8798 21.2978 13.031 20.7341 12.7774 20.2948Z" fill="white"/>
<path fill-rule="evenodd" clip-rule="evenodd" d="M19.2292 10.0649C18.672 9.09995 19.0044 7.86144 19.9701 7.3039C20.9357 6.7464 22.1745 7.07781 22.7316 8.04278C23.2887 9.00774 22.9564 10.2464 21.9908 10.8039C21.0251 11.3614 19.7863 11.0299 19.2292 10.0649ZM21.7774 8.59367C21.5238 8.15446 20.96 8.00365 20.5205 8.25739C20.0811 8.51112 19.9298 9.07481 20.1833 9.51402C20.4369 9.95323 21.0008 10.1041 21.4403 9.85039C21.8798 9.59666 22.031 9.03288 21.7774 8.59367Z" fill="white"/>
<path fill-rule="evenodd" clip-rule="evenodd" d="M10.2292 5.56492C9.67203 4.59995 10.0044 3.36144 10.9701 2.8039C11.9357 2.2464 13.1745 2.57781 13.7316 3.54278C14.2887 4.50774 13.9564 5.74637 12.9908 6.30388C12.0251 6.86141 10.7863 6.52989 10.2292 5.56492ZM12.7774 4.09367C12.5238 3.65446 11.96 3.50365 11.5205 3.75739C11.0811 4.01112 10.9298 4.57481 11.1833 5.01402C11.4369 5.45323 12.0008 5.60413 12.4403 5.35039C12.8798 5.09666 13.031 4.53288 12.7774 4.09367Z" fill="white"/>
<path fill-rule="evenodd" clip-rule="evenodd" d="M1.22916 10.0649C0.672032 9.09995 1.00438 7.86144 1.97005 7.3039C2.93568 6.7464 4.17448 7.07781 4.73161 8.04278C5.28873 9.00774 4.95639 10.2464 3.99076 10.8039C3.02509 11.3614 1.78628 11.0299 1.22916 10.0649ZM3.77743 8.59367C3.52385 8.15446 2.96003 8.00365 2.52054 8.25739C2.08106 8.51112 1.92976 9.07481 2.18334 9.51402C2.43691 9.95323 3.00078 10.1041 3.44027 9.85039C3.87976 9.59666 4.031 9.03288 3.77743 8.59367Z" fill="white"/>
<path fill-rule="evenodd" clip-rule="evenodd" d="M10.2292 14.5649C9.67203 13.6 10.0044 12.3614 10.9701 11.8039C11.9357 11.2464 13.1745 11.5778 13.7316 12.5428C14.2887 13.5077 13.9564 14.7464 12.9908 15.3039C12.0251 15.8614 10.7863 15.5299 10.2292 14.5649ZM12.7774 13.0937C12.5238 12.6545 11.96 12.5036 11.5205 12.7574C11.0811 13.0111 10.9298 13.5748 11.1833 14.014C11.4369 14.4532 12.0008 14.6041 12.4403 14.3504C12.8798 14.0967 13.031 13.5329 12.7774 13.0937Z" fill="white"/>
</svg>