<svg width="82" height="33" viewBox="0 0 82 33" fill="none" xmlns="http://www.w3.org/2000/svg">
<g clip-path="url(#clip0-061718)">
<path fill-rule="evenodd" clip-rule="evenodd" d="M16.9639 8.29472C15.4782 8.29472 14.2697 7.08528 14.2697 5.59853C14.2697 4.11185 15.4782 2.90234 16.9639 2.90234C18.4495 2.90234 19.6582 4.11185 19.6582 5.59853C19.6582 7.08528 18.4495 8.29472 16.9639 8.29472ZM16.9639 4.3714C16.2877 4.3714 15.7376 4.9219 15.7376 5.59853C15.7376 6.27517 16.2877 6.82566 16.9639 6.82566C17.6401 6.82566 18.1902 6.27517 18.1902 5.59853C18.1902 4.9219 17.6401 4.3714 16.9639 4.3714Z" fill="#F8F8FD"/>
<path d="M16.2697 8.7407C16.5011 8.79411 16.7421 8.82234 16.9896 8.82234C17.2371 8.82234 17.4781 8.7941 17.7097 8.74066V13.784C17.4781 13.7306 17.2371 13.7023 16.9896 13.7023C16.7421 13.7023 16.5011 13.7306 16.2697 13.784V8.7407Z" fill="#F8F8FD"/>
<path d="M14.6507 14.7206L10.2814 12.198C10.2119 12.4252 10.1159 12.6481 9.99213 12.8624C9.8684 13.0767 9.72345 13.2713 9.56146 13.4451L13.9291 15.9667C14.0732 15.4963 14.323 15.0716 14.6507 14.7206Z" fill="#F8F8FD"/>
<path d="M13.9291 17.838L9.56143 20.3596C9.72346 20.5334 9.86845 20.7281 9.99221 20.9424C10.1159 21.1567 10.212 21.3795 10.2815 21.6067L14.6507 19.0841C14.323 18.7331 14.0732 18.3084 13.9291 17.838Z" fill="#F8F8FD"/>
<path d="M16.2697 20.0207V25.064C16.5012 25.0106 16.7422 24.9823 16.9897 24.9823C17.2372 24.9823 17.4782 25.0106 17.7097 25.064V20.0207C17.4781 20.0741 17.2371 20.1023 16.9896 20.1023C16.7421 20.1023 16.5011 20.0741 16.2697 20.0207Z" fill="#F8F8FD"/>
<path d="M19.3286 19.0841L23.6979 21.6067C23.7674 21.3795 23.8634 21.1566 23.9872 20.9423C24.1109 20.728 24.2559 20.5334 24.4178 20.3596L20.0502 17.8379C19.9061 18.3084 19.6563 18.733 19.3286 19.0841Z" fill="#F8F8FD"/>
<path d="M20.0502 15.9668L24.4179 13.445C24.2558 13.2713 24.1109 13.0766 23.9871 12.8623C23.8634 12.648 23.7673 12.4251 23.6978 12.198L19.3285 14.7206C19.6562 15.0717 19.9061 15.4963 20.0502 15.9668Z" fill="#F8F8FD"/>
<path fill-rule="evenodd" clip-rule="evenodd" d="M9.52234 12.6209C8.77951 13.9075 7.12783 14.3494 5.84026 13.606C4.55276 12.8627 4.10957 11.2113 4.8524 9.92467C5.59524 8.63805 7.24704 8.19605 8.53455 8.93939C9.82211 9.68277 10.2652 11.3342 9.52234 12.6209ZM6.12465 10.6592C5.78654 11.2448 5.98827 11.9964 6.57426 12.3347C7.16024 12.673 7.912 12.4719 8.2501 11.8863C8.5882 11.3007 8.38654 10.549 7.80055 10.2107C7.21457 9.87238 6.46275 10.0736 6.12465 10.6592Z" fill="#F8F8FD"/>
<path fill-rule="evenodd" clip-rule="evenodd" d="M9.54812 21.2285C10.291 22.5151 9.84783 24.1665 8.56026 24.9098C7.27276 25.6532 5.62102 25.2113 4.87819 23.9247C4.13536 22.638 4.57847 20.9865 5.86598 20.2432C7.15355 19.4998 8.80529 19.9419 9.54812 21.2285ZM6.15043 23.1901C6.48853 23.7758 7.24029 23.9768 7.82627 23.6385C8.41226 23.3002 8.61399 22.5486 8.27588 21.963C7.93778 21.3774 7.18596 21.1762 6.59997 21.5145C6.01399 21.8528 5.81233 22.6045 6.15043 23.1901Z" fill="#F8F8FD"/>
<path fill-rule="evenodd" clip-rule="evenodd" d="M17.0154 25.51C18.5011 25.51 19.7097 26.7194 19.7097 28.2062C19.7097 29.6928 18.5011 30.9023 17.0154 30.9023C15.5298 30.9023 14.3211 29.6928 14.3211 28.2062C14.3211 26.7194 15.5298 25.51 17.0154 25.51ZM17.0154 29.4333C17.6916 29.4333 18.2417 28.8828 18.2417 28.2062C18.2417 27.5295 17.6916 26.979 17.0154 26.979C16.3392 26.979 15.7891 27.5295 15.7891 28.2062C15.7891 28.8828 16.3392 29.4333 17.0154 29.4333Z" fill="#F8F8FD"/>
<path fill-rule="evenodd" clip-rule="evenodd" d="M24.457 21.1838C25.1998 19.8972 26.8515 19.4553 28.139 20.1987C29.4265 20.942 29.8697 22.5934 29.1269 23.88C28.3841 25.1666 26.7323 25.6086 25.4448 24.8653C24.1572 24.1219 23.7141 22.4705 24.457 21.1838ZM27.8547 23.1455C28.1928 22.5599 27.991 21.8083 27.4051 21.47C26.8191 21.1317 26.0673 21.3327 25.7292 21.9184C25.3911 22.504 25.5928 23.2557 26.1788 23.594C26.7647 23.9323 27.5166 23.7311 27.8547 23.1455Z" fill="#F8F8FD"/>
<path fill-rule="evenodd" clip-rule="evenodd" d="M24.4312 12.5762C23.6883 11.2896 24.1315 9.63823 25.419 8.89485C26.7066 8.15151 28.3583 8.59339 29.1011 9.88002C29.8439 11.1666 29.4008 12.8181 28.1133 13.5615C26.8258 14.3049 25.174 13.8628 24.4312 12.5762ZM27.8289 10.6145C27.4908 10.0289 26.739 9.82784 26.153 10.1662C25.567 10.5045 25.3653 11.2561 25.7034 11.8417C26.0415 12.4273 26.7933 12.6285 27.3793 12.2902C27.9653 11.9519 28.167 11.2002 27.8289 10.6145Z" fill="#F8F8FD"/>
<path fill-rule="evenodd" clip-rule="evenodd" d="M16.9639 15.6514C16.2877 15.6514 15.7376 16.2019 15.7376 16.8785C15.7376 17.5552 16.2877 18.1057 16.9639 18.1057C17.6401 18.1057 18.1902 17.5552 18.1902 16.8785C18.1902 16.2019 17.6401 15.6514 16.9639 15.6514ZM16.9639 19.5747C15.4782 19.5747 14.2696 18.3653 14.2696 16.8785C14.2696 15.3918 15.4782 14.1823 16.9639 14.1823C18.4495 14.1823 19.6582 15.3918 19.6582 16.8785C19.6582 18.3653 18.4495 19.5747 16.9639 19.5747Z" fill="#F8F8FD"/>
</g>
<path d="M42.6872 24.4023L42.6872 9.12962H44.9915L44.9915 15.7667H52.6055L52.6055 9.12962H54.9173L54.9173 24.4023H52.6055L52.6055 17.7429H44.9915L44.9915 24.4023H42.6872ZM65.2032 19.652L65.2032 12.9478H67.4404L67.4404 24.4023H65.248L65.248 22.4187H65.1286C64.8651 23.0302 64.4426 23.5398 63.8609 23.9474C63.2842 24.3501 62.5658 24.5515 61.7057 24.5515C60.9699 24.5515 60.3186 24.3899 59.7519 24.0668C59.1901 23.7386 58.7476 23.2539 58.4244 22.6126C58.1063 21.9712 57.9472 21.1783 57.9472 20.2337L57.9472 12.9478H60.1769L60.1769 19.9652C60.1769 20.7457 60.3932 21.3672 60.8257 21.8295C61.2583 22.2919 61.82 22.5231 62.5111 22.5231C62.9287 22.5231 63.3438 22.4187 63.7565 22.2099C64.1741 22.0011 64.5196 21.6854 64.7931 21.2628C65.0715 20.8402 65.2082 20.3033 65.2032 19.652ZM70.4684 24.4023L70.4684 9.12962H72.6982L72.6982 14.8047H72.8324C72.9617 14.5661 73.1481 14.2901 73.3917 13.9769C73.6353 13.6637 73.9734 13.3903 74.4059 13.1566C74.8384 12.918 75.4102 12.7987 76.1211 12.7987C77.0458 12.7987 77.8711 13.0323 78.597 13.4996C79.3228 13.967 79.8921 14.6406 80.3047 15.5206C80.7223 16.4006 80.9311 17.4595 80.9311 18.6974C80.9311 19.9354 80.7248 20.9968 80.3122 21.8817C79.8995 22.7617 79.3328 23.4403 78.6119 23.9176C77.891 24.3899 77.0682 24.6261 76.1435 24.6261C75.4475 24.6261 74.8782 24.5092 74.4357 24.2756C73.9982 24.0419 73.6552 23.7685 73.4066 23.4553C73.158 23.142 72.9666 22.8636 72.8324 22.62H72.646L72.646 24.4023H70.4684ZM72.6534 18.6751C72.6534 19.4805 72.7703 20.1864 73.0039 20.793C73.2376 21.3995 73.5757 21.8743 74.0181 22.2173C74.4606 22.5554 75.0025 22.7244 75.6438 22.7244C76.31 22.7244 76.8668 22.5479 77.3143 22.195C77.7617 21.837 78.0998 21.3523 78.3285 20.7408C78.5622 20.1293 78.679 19.4407 78.679 18.6751C78.679 17.9194 78.5646 17.2408 78.336 16.6392C78.1122 16.0376 77.7742 15.5629 77.3217 15.2148C76.8743 14.8668 76.315 14.6928 75.6438 14.6928C74.9975 14.6928 74.4507 14.8594 74.0032 15.1925C73.5607 15.5256 73.2252 15.9904 72.9965 16.587C72.7678 17.1836 72.6534 17.8796 72.6534 18.6751Z" fill="#E6E6E6"/>
<defs>
<clipPath id="clip0-061718">
<rect width="32" height="32" fill="white" transform="translate(0.972656 0.902344)"/>
</clipPath>
</defs>
</svg>