<svg width="119" height="34" viewBox="0 0 119 34" fill="none" xmlns="http://www.w3.org/2000/svg">
<path d="M84.5365 11.1505C84.3996 11.1505 84.1943 11.082 83.6469 11.082C83.1679 11.082 82.7573 11.1505 82.3468 11.2191C80.7045 11.5616 79.6096 12.4522 78.7201 13.4114L78.7201 11.4931H73.5195L73.5195 28.3467H78.7201L78.7201 21.3586C78.7201 20.5365 78.7885 19.7829 78.8569 19.0978C78.9254 18.4127 79.1306 17.7961 79.4728 17.3165C79.8149 16.8369 80.2255 16.4259 80.7729 16.1518C81.3203 15.8778 82.1415 15.7408 83.0995 15.7408C83.5101 15.7408 83.8522 15.7408 84.1943 15.8093C84.5365 15.8778 84.947 15.9463 85.2892 16.0833L85.2892 11.3561C85.0839 11.2876 84.8102 11.2191 84.5365 11.1505Z" fill="#E6E6E6"/>
<path d="M98.4271 11.1505C98.2902 11.1505 98.085 11.082 97.5375 11.082C97.0585 11.082 96.648 11.1505 96.2374 11.2191C94.5951 11.5616 93.5003 12.4522 92.6107 13.4114L92.6107 11.4931H87.4102L87.4102 28.3467H92.6107L92.6107 21.3586C92.6107 20.5365 92.6791 19.7829 92.7476 19.0978C92.816 18.4127 93.0213 17.7961 93.3634 17.3165C93.7056 16.8369 94.1161 16.4259 94.6636 16.1518C95.211 15.8778 96.0321 15.7408 96.9901 15.7408C97.4007 15.7408 97.7428 15.7408 98.085 15.8093C98.4271 15.8778 98.8377 15.9463 99.1798 16.0833L99.1798 11.3561C98.9745 11.2876 98.7008 11.2191 98.4271 11.1505Z" fill="#E6E6E6"/>
<path d="M43.6828 10.8758H36.7031L36.7031 6.08008H56.0683L56.0683 10.8758H49.0886L49.0886 28.4145H43.6828L43.6828 10.8758Z" fill="#E6E6E6"/>
<path d="M70.6455 25.4691C69.8244 26.5653 68.7979 27.3189 67.4978 27.9355C66.1977 28.4836 64.8975 28.8261 63.529 28.8261C62.2288 28.8261 60.9971 28.6206 59.9023 28.2095C58.739 27.7985 57.781 27.1819 56.8914 26.4283C56.0703 25.6746 55.386 24.7155 54.907 23.6193C54.428 22.5232 54.1543 21.29 54.1543 19.9883C54.1543 18.618 54.428 17.4534 54.907 16.3572C55.386 15.261 56.0703 14.3704 56.8914 13.5483C57.7126 12.7946 58.739 12.1781 59.9023 11.767C61.0655 11.3559 62.2288 11.1504 63.529 11.1504C64.7607 11.1504 65.7871 11.3559 66.8135 11.767C67.7715 12.1781 68.5926 12.7946 69.2769 13.5483C69.9612 14.3019 70.5086 15.261 70.8508 16.3572C71.1929 17.4534 71.3982 18.6866 71.3982 19.9883L71.3982 21.6325H59.3548C59.5601 22.6602 60.0391 23.4138 60.7234 24.0304C61.4077 24.647 62.2973 24.921 63.2553 24.921C64.0764 24.921 64.8291 24.7155 65.445 24.3729C66.0608 23.9619 66.5398 23.4823 67.0188 22.8657L70.6455 25.4691ZM66.2661 18.07C66.2661 17.1793 65.9924 16.4257 65.3765 15.8091C64.7607 15.1925 64.008 14.85 63.05 14.85C62.5025 14.85 61.9551 14.9185 61.5445 15.124C61.134 15.3295 60.7234 15.5351 60.4497 15.8091C60.1075 16.0832 59.9023 16.4257 59.697 16.8368C59.4917 17.2478 59.4233 17.5904 59.4233 18.0015H66.2661L66.2661 18.07Z" fill="#E6E6E6"/>
<path d="M99.791 23.5508C99.791 19.7142 102.733 18.0015 106.839 18.0015C108.618 18.0015 109.918 18.2755 111.15 18.6866L111.15 18.4125C111.15 16.4257 109.85 15.261 107.387 15.261C105.471 15.261 104.17 15.6036 102.528 16.2202L101.296 12.5206C103.212 11.6985 105.128 11.1504 108.139 11.1504C110.876 11.1504 112.792 11.8355 114.093 13.0687C115.393 14.3704 116.009 16.2202 116.009 18.5495L116.009 28.4836H111.219L111.219 26.6338C109.987 27.9355 108.345 28.8261 105.881 28.8261C102.46 28.8261 99.791 26.9763 99.791 23.5508ZM111.219 22.4546L111.219 22.1806C111.219 21.838 111.013 21.4955 110.603 21.3585C109.85 21.0844 108.96 20.9474 108.002 20.9474C105.881 20.9474 104.581 21.7695 104.581 23.3453L104.581 23.4138C104.581 24.7155 105.676 25.4691 107.318 25.4691C109.645 25.4691 111.219 24.2359 111.219 22.4546Z" fill="#E6E6E6"/>
<path opacity="0.4" d="M15.6274 25.5348C16.4485 28.5493 19.3225 30.8102 20.8279 30.7416C20.8963 30.7416 26.3706 29.714 29.4499 24.6442C31.7764 20.7391 31.0237 16.9025 27.8076 16.834C26.6443 16.9025 14.1219 19.7799 15.6274 25.5348Z" fill="#E6E6E6"/>
<path opacity="0.4" d="M27.4652 6.2164C25.0702 4.09257 21.8541 2.85938 18.3642 2.85938C16.3114 2.85938 14.3954 3.27044 12.6847 4.09257C12.3425 4.22959 12.0688 4.36661 11.7951 4.50363C11.5898 4.64065 11.3846 4.70916 11.1793 4.84618H11.2477C10.7003 5.25725 10.1528 5.73682 9.74228 6.28491C5.70501 11.6287 19.2538 15.4653 26.4388 15.5338C29.7917 17.8632 30.7497 8.75129 27.4652 6.2164Z" fill="#E6E6E6"/>
<path d="M13.5052 6.3546C11.6576 9.16353 5.49908 11.0818 4.47266 10.8078C4.54108 10.7393 4.54108 10.6708 4.60951 10.5337C4.95165 9.84864 5.36222 9.23205 5.84122 8.61545C6.32022 7.99885 6.79922 7.45077 7.34664 6.90268C7.89407 6.3546 8.44149 5.87502 9.05735 5.39545C9.46792 5.12141 9.81005 4.84736 10.2206 4.64183C11.1102 4.16226 11.9998 4.09375 12.2735 4.09375C14.9422 4.09375 13.5052 6.28609 13.5052 6.3546Z" fill="#E6E6E6"/>
<path d="M12.0014 26.0869C12.1383 26.9775 12.0014 30.4031 11.7961 30.7456C11.6593 30.7456 11.3171 30.7456 10.3591 30.266C9.88014 29.992 9.40114 29.6494 8.92214 29.3754C8.30629 28.8958 7.75886 28.4163 7.21143 27.8682C6.66401 27.3201 6.18501 26.772 5.70602 26.1554C5.22702 25.5388 4.88488 24.9222 4.47431 24.2371C4.13217 23.552 3.79003 22.8669 3.58474 22.1133C3.37946 21.3597 3.17417 20.606 3.03732 19.8524C2.90046 19.0988 2.83203 18.2767 2.83203 17.4546C2.83203 16.6324 2.90046 15.8103 3.03732 15.0567C3.17417 14.3031 3.37946 13.4809 3.58474 12.7958C3.65317 12.6588 3.65317 12.5218 3.7216 12.3848C4.81645 13.8235 6.04816 15.1252 7.07458 16.4954C8.101 17.8656 9.46957 20.058 9.74328 20.5375C11.5908 23.3465 11.8646 25.1963 12.0014 26.0869Z" fill="#E6E6E6"/>
<path d="M32.5299 17.3155C32.5299 19.2338 32.1878 21.0836 31.5035 22.7279C29.7928 24.5777 18.0232 19.9874 17.8863 19.9189C16.244 19.2338 11.3856 17.0415 10.975 13.6845C10.3592 8.82022 20.1444 5.46319 24.4554 5.32617C25.0028 5.32617 26.5767 5.32617 27.4662 6.07979C30.5455 8.88872 32.5299 12.8623 32.5299 17.3155Z" fill="#E6E6E6"/>
<path d="M24.5927 30.4685C23.2926 31.0851 21.924 30.6056 22.2661 29.3724C22.9504 26.9745 29.109 24.5081 30.4775 24.3711C30.6144 24.3711 30.6828 24.4396 30.6144 24.5766C29.1774 27.1115 27.1245 29.1668 24.5927 30.4685Z" fill="#E6E6E6"/>
</svg>