<svg width="37" height="36" fill="none" xmlns="http://www.w3.org/2000/svg"><circle cx="18.5" cy="18" r="17" fill="#fff" stroke="#000" stroke-width="2"/><g clip-path="url(#clip0-430898)" fill="#000"><path d="M13.669 27.98A5.161 5.161 0 018.9 24.794a5.146 5.146 0 011.122-5.624l6.87-6.87 1.114 1.114-6.863 6.87a3.587 3.587 0 001.584 6.055 3.601 3.601 0 003.49-.973l.66-.658 1.113 1.113-.659.667a5.269 5.269 0 01-3.662 1.49z"/><path d="M23.08 17.491l-6.87-6.87a3.606 3.606 0 00-3.467-.926 3.604 3.604 0 00-2.54 2.533 3.606 3.606 0 00.925 3.467l.658.659-1.113 1.113-.66-.658a5.166 5.166 0 01-1.332-4.989 5.148 5.148 0 013.647-3.647 5.185 5.185 0 014.988 1.334l6.878 6.87-1.113 1.114z"/><path d="M20.123 23.702l-1.113-1.106 6.87-6.87a3.594 3.594 0 00-.039-5.036 3.586 3.586 0 00-5.035-.039l-.659.659-1.114-1.114.66-.659a5.166 5.166 0 014.987-1.333 5.148 5.148 0 013.647 3.647 5.166 5.166 0 01-1.333 4.988l-6.87 6.863z"/><path d="M23.34 28.002a5.093 5.093 0 01-3.647-1.514l-6.87-6.87 1.113-1.114 6.87 6.87a3.583 3.583 0 005.075 0 3.583 3.583 0 000-5.074l-.658-.659 1.113-1.114.66.66a5.16 5.16 0 011.12 5.623 5.187 5.187 0 01-4.776 3.192z"/></g><defs><clipPath id="clip0-430898"><path fill="#fff" transform="translate(8.5 8)" d="M0 0h20v20H0z"/></clipPath></defs></svg>