<svg width="72" height="72" fill="none" xmlns="http://www.w3.org/2000/svg"><circle cx="36" cy="36" r="30.375" fill="url(#paint0_radial)"/><path d="M4.799 31.609C1.865 33.244.227 35.062.312 36.917c.258 5.622 16.264 9.454 35.749 8.559 19.485-.896 35.071-6.18 34.813-11.802-.077-1.68-1.558-3.198-4.117-4.48.086.387.165.777.236 1.167.11.063.216.127.32.19 1.719 1.061 2.49 2.142 2.537 3.17.048 1.027-.621 2.175-2.236 3.389-1.606 1.206-4.018 2.376-7.108 3.424-6.17 2.092-14.823 3.623-24.485 4.067-9.663.444-18.419-.287-24.755-1.804-3.174-.76-5.683-1.704-7.392-2.758-1.72-1.06-2.491-2.142-2.539-3.17-.047-1.027.622-2.174 2.237-3.388.33-.248.692-.494 1.088-.737.04-.379.086-.757.139-1.135z" fill="#fff" fill-opacity=".75"/><path d="M6.021 45.697c-3.177 4.707-4.267 8.766-2.605 11.34 3.923 6.076 21.691 1.583 39.687-10.036C61.099 35.383 72.507 21.04 68.584 14.963c-1.663-2.576-5.814-3.253-11.416-2.292.35.318.693.644 1.028.976 1.878-.272 3.541-.336 4.95-.194 2.334.235 3.776 1.01 4.493 2.12.717 1.11.83 2.744.083 4.967-.742 2.21-2.277 4.82-4.54 7.663-4.516 5.679-11.766 12.092-20.69 17.853-8.923 5.762-17.751 9.73-24.786 11.508-3.523.89-6.533 1.217-8.852.983-2.334-.235-3.776-1.01-4.493-2.12-.717-1.11-.83-2.744-.083-4.967.45-1.34 1.192-2.827 2.21-4.424a31.31 31.31 0 01-.467-1.339z" fill="#fff" fill-opacity=".75"/><defs><radialGradient id="paint0_radial" cx="0" cy="0" r="1" gradientUnits="userSpaceOnUse" gradientTransform="rotate(45 -9.028 30.595) scale(67.0125)"><stop stop-color="#66A1FF"/><stop offset=".427" stop-color="#5064FB" stop-opacity=".58"/><stop offset=".808" stop-color="#9214B1" stop-opacity="0"/></radialGradient></defs></svg>