<svg width="82" height="33" fill="none" xmlns="http://www.w3.org/2000/svg"><g clip-path="url(#clip0-061718)" fill="#F8F8FD"><path fill-rule="evenodd" clip-rule="evenodd" d="M16.964 8.295a2.698 2.698 0 01-2.694-2.696 2.698 2.698 0 012.694-2.697A2.698 2.698 0 0119.658 5.6a2.698 2.698 0 01-2.694 2.696zm0-3.924a1.228 1.228 0 000 2.455 1.228 1.228 0 000-2.455z"/><path d="M16.27 8.74a3.198 3.198 0 001.44 0v5.044a3.202 3.202 0 00-1.44 0V8.741zm-1.62 5.98l-4.369-2.522a3.198 3.198 0 01-.72 1.247l4.368 2.522a3.2 3.2 0 01.722-1.246zm-.72 3.118L9.56 20.36a3.202 3.202 0 01.72 1.247l4.37-2.523a3.201 3.201 0 01-.722-1.246zm2.34 2.182v5.044a3.2 3.2 0 011.44 0v-5.043a3.202 3.202 0 01-1.44 0zm3.059-.936l4.369 2.523a3.196 3.196 0 01.72-1.247l-4.368-2.522a3.21 3.21 0 01-.721 1.246zm.721-3.117l4.368-2.522a3.196 3.196 0 01-.72-1.247l-4.37 2.523c.328.35.578.775.722 1.246z"/><path fill-rule="evenodd" clip-rule="evenodd" d="M9.522 12.62a2.698 2.698 0 01-3.682.986 2.698 2.698 0 01-.988-3.681 2.698 2.698 0 013.683-.986 2.698 2.698 0 01.987 3.682zm-3.397-1.96a1.228 1.228 0 002.125 1.226 1.228 1.228 0 00-2.125-1.227zm3.423 10.569a2.698 2.698 0 01-.988 3.68 2.698 2.698 0 01-3.682-.984 2.698 2.698 0 01.988-3.682 2.698 2.698 0 013.682.986zM6.15 23.19a1.228 1.228 0 002.126-1.227A1.228 1.228 0 006.15 23.19zm10.865 2.32a2.698 2.698 0 012.695 2.696 2.698 2.698 0 01-2.695 2.696 2.698 2.698 0 01-2.694-2.696 2.698 2.698 0 012.694-2.696zm0 3.923a1.228 1.228 0 000-2.454 1.228 1.228 0 000 2.454zm7.442-8.249a2.698 2.698 0 013.682-.985 2.698 2.698 0 01.988 3.681 2.698 2.698 0 01-3.682.985 2.698 2.698 0 01-.988-3.681zm3.398 1.961a1.228 1.228 0 00-2.126-1.227 1.228 1.228 0 002.126 1.227zm-3.424-10.569a2.698 2.698 0 01.988-3.681 2.698 2.698 0 013.682.985 2.698 2.698 0 01-.988 3.681 2.698 2.698 0 01-3.682-.985zm3.398-1.962a1.228 1.228 0 00-2.126 1.228 1.228 1.228 0 002.126-1.228zm-10.865 5.037a1.228 1.228 0 000 2.455 1.228 1.228 0 000-2.455zm0 3.924a2.698 2.698 0 01-2.694-2.697 2.698 2.698 0 012.694-2.696 2.698 2.698 0 012.694 2.696 2.698 2.698 0 01-2.694 2.697z"/></g><path d="M42.687 24.402V9.13h2.305v6.637h7.614V9.13h2.311v15.272h-2.312v-6.66h-7.613v6.66h-2.305zm22.516-4.75v-6.704h2.237v11.454h-2.192V22.42h-.12a3.574 3.574 0 01-1.267 1.528c-.577.403-1.295.605-2.155.605-.736 0-1.387-.162-1.954-.485-.562-.328-1.004-.813-1.328-1.454-.318-.642-.477-1.435-.477-2.38v-7.285h2.23v7.017c0 .78.216 1.402.649 1.864.432.463.994.694 1.685.694.418 0 .833-.104 1.245-.313a2.624 2.624 0 001.037-.947c.278-.423.415-.96.41-1.611zm5.265 4.75V9.13h2.23v5.675h.134c.13-.239.316-.515.56-.828.243-.313.581-.587 1.014-.82.432-.239 1.004-.358 1.715-.358.925 0 1.75.233 2.476.7.726.468 1.295 1.142 1.708 2.022.417.88.626 1.938.626 3.176 0 1.238-.206 2.3-.619 3.185-.412.88-.98 1.558-1.7 2.036-.721.472-1.544.708-2.468.708-.697 0-1.266-.117-1.708-.35-.438-.234-.78-.508-1.03-.82a6.21 6.21 0 01-.574-.836h-.186v1.782h-2.178zm2.185-5.727c0 .805.117 1.511.35 2.118.235.607.573 1.081 1.015 1.424.443.338.984.507 1.626.507.666 0 1.223-.176 1.67-.529.448-.358.786-.843 1.015-1.454.233-.612.35-1.3.35-2.066 0-.756-.114-1.434-.343-2.036-.224-.601-.562-1.076-1.014-1.424-.448-.348-1.007-.522-1.678-.522-.647 0-1.193.166-1.64.5-.443.333-.779.797-1.008 1.394-.228.597-.343 1.293-.343 2.088z" fill="#E6E6E6"/><defs><clipPath id="clip0-061718"><path fill="#fff" transform="translate(.973 .902)" d="M0 0h32v32H0z"/></clipPath></defs></svg>