<svg width="100" height="34" fill="none" xmlns="http://www.w3.org/2000/svg"><g clip-path="url(#clip0-472220)" fill="#E6E6E6"><path d="M51.483 16.872c0 1.085-.168 2.11-.52 3.058a7.402 7.402 0 01-1.498 2.507c-.657.72-1.453 1.285-2.416 1.713-.963.428-2.049.627-3.272.627-1.223 0-2.309-.214-3.272-.627-.963-.428-1.759-.994-2.416-1.713a7.306 7.306 0 01-1.498-2.507 9.165 9.165 0 01-.505-3.058c0-1.07.168-2.095.505-3.058a7.232 7.232 0 011.498-2.523c.657-.719 1.468-1.285 2.416-1.713.963-.428 2.049-.627 3.272-.627 1.223 0 2.309.214 3.272.627.964.428 1.759.994 2.416 1.713.658.718 1.147 1.56 1.499 2.523.351.963.52 1.987.52 3.058zm-7.69 5.397c.749 0 1.406-.137 1.956-.413a4.077 4.077 0 001.407-1.131 4.85 4.85 0 00.841-1.713 7.97 7.97 0 00.276-2.14 7.97 7.97 0 00-.276-2.141 4.85 4.85 0 00-.84-1.713 3.908 3.908 0 00-1.407-1.131c-.566-.275-1.208-.413-1.958-.413-.749 0-1.406.138-1.957.413a4.075 4.075 0 00-1.407 1.131 4.85 4.85 0 00-.84 1.713 7.966 7.966 0 00-.276 2.14c0 .765.092 1.484.276 2.141a4.85 4.85 0 00.84 1.713c.383.49.841.856 1.407 1.131.55.276 1.208.413 1.957.413zm9.709 2.248V9.227h3.21v7.339l5.307-7.34h3.715l-5.627 7.554 6.01 7.737H62.14l-5.443-7.508v7.508h-3.196zM67.4 9.227h9.19v2.553h-5.964v3.7h5.688v2.538h-5.688v3.945h6.04v2.554h-9.25V9.227H67.4zm20.642 0h3.486l-5.03 7.599 5.122 7.69h-3.517l-3.302-5.213-3.303 5.214h-3.517l5.122-7.691-5.03-7.6h3.486l3.242 5.169 3.241-5.169z"/><path opacity=".85" d="M16.207 15.372a7.34 7.34 0 100-14.679 7.34 7.34 0 000 14.68z"/><path opacity=".75" d="M16.207 33.109a7.34 7.34 0 100-14.68 7.34 7.34 0 000 14.68z"/><path opacity=".8" d="M25.078 24.241a7.34 7.34 0 100-14.679 7.34 7.34 0 000 14.68z"/><path opacity=".7" d="M7.34 24.241a7.34 7.34 0 100-14.679 7.34 7.34 0 000 14.68z"/></g><defs><clipPath id="clip0-472220"><path fill="#fff" transform="translate(0 .693)" d="M0 0h100v32.416H0z"/></clipPath></defs></svg>