<svg width="168" height="34" fill="none" xmlns="http://www.w3.org/2000/svg"><g clip-path="url(#clip0-963445)" fill="#E6E6E6"><path d="M10.125 14.228l6.525-6.525 6.528 6.528 3.797-3.796L16.65.109 6.328 10.431l3.797 3.797zM7.449 16.9l-3.797-3.796L-.144 16.9l3.796 3.797L7.45 16.9zm2.677 2.685l6.525 6.525 6.528-6.528 3.8 3.795-.003.002-10.325 10.325L6.33 23.382l-.006-.005 3.802-3.792zm19.534 1.106l3.797-3.796-3.797-3.797-3.796 3.797 3.796 3.796z"/><path d="M20.502 16.901h.002l-3.853-3.852-2.847 2.847-.327.327-.675.675-.005.005.005.006 3.85 3.85 3.852-3.854.002-.002-.004-.002zm18.873-8.655h8.258c2.049 0 3.599.526 4.65 1.578.812.815 1.218 1.824 1.218 3.029v.05c0 .51-.063.96-.19 1.35a4.19 4.19 0 01-.505 1.056c-.21.314-.456.59-.734.827a4.922 4.922 0 01-.897.611c1.03.39 1.84.92 2.432 1.59.591.671.887 1.6.887 2.788v.05c0 .815-.157 1.528-.47 2.14a4.155 4.155 0 01-1.347 1.526c-.585.408-1.288.713-2.11.917-.82.203-1.731.305-2.73.305h-8.462V8.246zm7.432 7.203c.866 0 1.553-.148 2.062-.445.509-.297.763-.777.763-1.438v-.051c0-.594-.22-1.048-.662-1.362-.441-.314-1.077-.47-1.909-.47h-3.868v3.766h3.614zm1.044 7.178c.865 0 1.543-.157 2.036-.47.492-.315.738-.803.738-1.465v-.05c0-.594-.23-1.065-.687-1.413-.459-.347-1.197-.521-2.215-.521h-4.53v3.92h4.658v-.001zM59.41 8.246h3.92v17.817h-3.92V8.246zm9.856 0h3.613l8.35 10.97V8.246h3.868v17.817h-3.334l-8.629-11.326v11.326h-3.868V8.246zm27.703-.125h3.614l7.636 17.944h-4.098l-1.629-3.995h-7.534l-1.63 3.995h-3.996l7.637-17.944zm4.123 10.486l-2.367-5.777-2.367 5.777h4.734zm11.357-10.359h3.615l8.348 10.97V8.248h3.869v17.817h-3.334l-8.629-11.326v11.326h-3.869V8.248zm29.943 18.112c-1.308 0-2.52-.238-3.64-.713a8.927 8.927 0 01-2.902-1.947 8.855 8.855 0 01-1.909-2.915 9.391 9.391 0 01-.687-3.589v-.05c0-1.273.229-2.465.687-3.577a9.184 9.184 0 011.909-2.927 8.843 8.843 0 012.927-1.985c1.136-.484 2.393-.725 3.767-.725.831 0 1.59.068 2.278.203a9.58 9.58 0 011.871.56c.56.238 1.077.526 1.553.865.474.34.916.713 1.323 1.12l-2.494 2.877c-.697-.628-1.405-1.12-2.126-1.477-.721-.356-1.531-.534-2.431-.534a4.923 4.923 0 00-3.716 1.629 5.605 5.605 0 00-1.069 1.769 6.02 6.02 0 00-.381 2.15v.051c0 .764.127 1.485.381 2.164a5.646 5.646 0 001.057 1.781 4.905 4.905 0 003.728 1.655c1.019 0 1.879-.187 2.584-.56.704-.373 1.404-.882 2.1-1.527l2.494 2.52a12.98 12.98 0 01-1.425 1.323 8.456 8.456 0 01-1.617 1.006 8.37 8.37 0 01-1.921.636c-.696.144-1.477.216-2.341.216zm11.917-18.112h13.413v3.487h-9.544v3.615h8.399v3.487h-8.399v3.741h9.672v3.487h-13.541V8.248z"/></g><defs><clipPath id="clip0-963445"><path fill="#fff" transform="matrix(.99889 0 0 .99903 0 .102)" d="M0 0h167.911v33.633H0z"/></clipPath></defs></svg>