<svg width="24" height="25" fill="none" xmlns="http://www.w3.org/2000/svg"><path d="M11.999 15.973c.186 0 .366-.021.54-.06v2.521a2.408 2.408 0 00-1.08 0v-2.522c.174.04.354.061.54.061zm2.334-10.836c-.087.36-.255.689-.483.965l4.816 2.409c.087-.36.255-.69.483-.966l-4.816-2.408zm-4.183.965a2.392 2.392 0 01-.484-.965L4.85 7.545a2.4 2.4 0 01.483.966l4.816-2.409zM5.333 9.637c-.087.36-.255.689-.483.965l4.816 2.409c.087-.36.255-.69.483-.966L5.333 9.637zm13.817.965l-4.817 2.409a2.391 2.391 0 00-.483-.966l4.816-2.408c.087.36.255.689.483.965z" fill="#fff"/><path fill-rule="evenodd" clip-rule="evenodd" d="M10.23 21.766a2.024 2.024 0 01.74-2.76 2.024 2.024 0 012.762.738 2.024 2.024 0 01-.741 2.761 2.024 2.024 0 01-2.762-.739zm2.547-1.471a.921.921 0 00-1.594.92.921.921 0 001.594-.92zm6.453-10.23a2.024 2.024 0 01.74-2.761 2.024 2.024 0 012.762.739 2.024 2.024 0 01-.741 2.76 2.024 2.024 0 01-2.762-.738zm2.547-1.471a.921.921 0 00-1.594.92.921.921 0 001.594-.92zM10.23 5.565a2.024 2.024 0 01.74-2.761 2.024 2.024 0 012.762.739 2.024 2.024 0 01-.741 2.76 2.024 2.024 0 01-2.762-.738zm2.547-1.471a.921.921 0 00-1.594.92.921.921 0 001.594-.92zM1.23 10.065a2.024 2.024 0 01.74-2.761 2.024 2.024 0 012.762.739 2.024 2.024 0 01-.741 2.76 2.024 2.024 0 01-2.762-.738zm2.547-1.471a.921.921 0 00-1.594.92.921.921 0 001.594-.92zm6.453 5.971a2.024 2.024 0 01.74-2.761 2.024 2.024 0 012.762.739 2.024 2.024 0 01-.741 2.76 2.024 2.024 0 01-2.762-.738zm2.547-1.471a.921.921 0 00-1.594.92.921.921 0 001.594-.92z" fill="#fff"/></svg>