<svg width="36" height="36" fill="none" xmlns="http://www.w3.org/2000/svg"><circle cx="18" cy="18" r="17" fill="#073387" stroke="#000" stroke-width="2"/><path fill-rule="evenodd" clip-rule="evenodd" d="M20.206 9.592c.591-.314 1.151-.467 1.68-.467.536 0 .963.125 1.292.363l.003.002c.324.224.476.503.476.846 0 .295-.079.543-.232.75l-.003.005c-.143.208-.294.29-.455.29-.098 0-.16-.036-.207-.113a7.822 7.822 0 01-.308-.688c-.116-.296-.261-.533-.442-.702a.898.898 0 00-.682-.285c-.462 0-.844.256-1.148.718l-.001.003c-.284.452-.562 1.15-.836 2.085-.15.511-.268.986-.356 1.424a6.64 6.64 0 00-.056.24.824.824 0 00-.022.146v.038a.33.33 0 00.121.27.46.46 0 00.287.082c.228 0 .553-.012.974-.037l.89-.018.007.014.017.017s.003.003.006.012c.003.01.007.025.007.05 0 .05-.036.152-.159.324l-.002.003-.002.003a.703.703 0 01-.133.162c-.036.03-.055.031-.06.031l-1.565.037c-.209 0-.39.033-.524.116l-.003.002-.004.003a.662.662 0 00-.243.378c-.783 2.66-.95 3.482-1.468 6.025l-.076.372v.004l-.001.003c-.07.452-.266.995-.492 1.51a16.24 16.24 0 01-.645 1.296c-.34.614-.703 1.105-1.088 1.477l-.002.001c-.376.377-.742.651-1.095.828-.295.147-.528.25-.704.31l-.079-.193a3.23 3.23 0 00.49-.393c.239-.21.466-.494.682-.845.233-.356.442-.79.63-1.3.2-.493.608-1.666.717-2.345l1.443-6.672a.646.646 0 00.023-.187c0-.105-.043-.2-.135-.262a.523.523 0 00-.292-.072l-1.118.019c-.077 0-.113-.015-.129-.025a.284.284 0 01-.02-.125.45.45 0 01.116-.28c.09-.11.185-.16.286-.169l1.211-.056h.004c.216-.022.333-.198.388-.405l.149-.52c.319-1.067.734-1.937 1.242-2.615.525-.695 1.074-1.187 1.645-1.485z" fill="#fff"/></svg>