<svg width="36" height="36" fill="none" xmlns="http://www.w3.org/2000/svg"><circle cx="18" cy="18" r="17" fill="#fff" stroke="#000" stroke-width="2"/><path fill-rule="evenodd" clip-rule="evenodd" d="M21.39 14.476a9.293 9.293 0 00-3.39-.64 9.101 9.101 0 00-6.485 2.694 9.19 9.19 0 00-2.7 6.47l-.002.329.286.162a9.183 9.183 0 004.652 1.192 9.324 9.324 0 003.979-.959 9.483 9.483 0 01-1.119-.73 8.143 8.143 0 01-6.664-.319c.201-4.286 3.747-7.72 8.053-7.72a8.14 8.14 0 013.449.766 7.717 7.717 0 00-.06-1.245z" fill="#000"/><path fill-rule="evenodd" clip-rule="evenodd" d="M27.185 22.925c-.033-3.037-1.519-5.808-3.995-7.495.002.444-.028.888-.09 1.33a8.022 8.022 0 012.95 5.843c-3.795 1.947-8.529.583-10.685-3.137a8.003 8.003 0 01-1.044-3.276 7.676 7.676 0 00-1.047.684 9.133 9.133 0 001.118 3.152 9.15 9.15 0 005.552 4.272c.799.217 1.61.324 2.418.324a9.19 9.19 0 004.538-1.204l.288-.163-.003-.33z" fill="#000"/><path fill-rule="evenodd" clip-rule="evenodd" d="M18.325 7.51l-.284-.166-.284.165a9.26 9.26 0 00-3.37 3.389 9.235 9.235 0 00-1.2 3.944 9.386 9.386 0 011.198-.598A8.166 8.166 0 0118.04 8.65c3.614 2.313 4.803 7.11 2.632 10.855a8.158 8.158 0 01-2.344 2.564c.355.216.729.404 1.117.56.88-.71 1.63-1.58 2.2-2.564 2.535-4.373 1.045-10.005-3.32-12.554z" fill="#000"/><path fill-rule="evenodd" clip-rule="evenodd" d="M18 17.063a.938.938 0 000 1.875.938.938 0 000-1.875zm0 3A2.065 2.065 0 0115.937 18c0-1.137.926-2.063 2.063-2.063 1.138 0 2.063.926 2.063 2.063A2.065 2.065 0 0118 20.063z" fill="#000"/></svg>