<svg width="143" height="34" fill="none" xmlns="http://www.w3.org/2000/svg"><g clip-path="url(#clip0-394891)" fill="#E6E6E6"><path d="M.822 32.793l21.067-8.89-6.664-6.775L.822 32.793zM8.56 10.36l6.665 6.767L27.129 2.555 8.56 10.36zm29.103 3.295h-3.278v-1.727h8.467v1.73h-3.268v9.76h-1.92v-9.763zm9.12-1.727h1.932v4.968h4.888v-4.968h1.948v11.49h-1.948v-4.796h-4.888v4.796h-1.932v-11.49zM62.088 22.97c-.661-.301-1.16-.87-1.496-1.708-.337-.836-.505-2.069-.505-3.697 0-1.622.171-2.862.512-3.72.34-.859.843-1.445 1.505-1.757.662-.308 1.55-.463 2.662-.464 1.114 0 2.009.154 2.686.464.667.309 1.168.89 1.505 1.743.338.853.505 2.096.505 3.73 0 1.622-.171 2.855-.513 3.697-.342.842-.84 1.412-1.497 1.71-.656.3-1.55.448-2.686.45-1.133 0-2.026-.15-2.678-.45v.002zm4.34-1.611c.384-.21.66-.604.828-1.185.168-.58.252-1.453.252-2.617 0-1.203-.087-2.104-.261-2.7-.174-.597-.45-.995-.826-1.195-.379-.197-.93-.296-1.655-.297-.703 0-1.244.102-1.623.306-.377.204-.656.6-.834 1.193-.18.59-.268 1.489-.268 2.693 0 1.173.081 2.045.244 2.617.162.572.435.968.817 1.185.378.21.935.314 1.67.314.721 0 1.273-.104 1.656-.314zm7.872-9.432H79c.983 0 1.761.257 2.336.77.574.515.862 1.447.862 2.794 0 1.018-.18 1.76-.541 2.226a2.928 2.928 0 01-1.418.998l2.225 4.702h-1.959L78.5 18.996c-.637 0-1.394-.01-2.272-.032v4.454H74.3v-11.49zm4.371 5.529c.503 0 .89-.144 1.168-.429.276-.284.416-.796.417-1.533 0-.706-.139-1.19-.417-1.454-.279-.262-.668-.392-1.168-.389h-2.444v3.799l2.444.006zm9.49 5.498c-.573-.309-1.011-.893-1.313-1.75-.303-.86-.454-2.1-.453-3.722 0-1.54.153-2.736.46-3.588.308-.852.759-1.444 1.353-1.775.592-.33 1.36-.495 2.303-.495.62 0 1.24.05 1.851.15.538.081 1.07.199 1.59.353v1.494a13.066 13.066 0 00-1.314-.171 19.062 19.062 0 00-1.74-.08c-.676 0-1.196.108-1.56.323-.364.214-.627.615-.79 1.202-.165.586-.246 1.458-.246 2.617 0 1.158.076 2.033.23 2.622.154.588.41.99.768 1.21.358.218.886.328 1.582.33a23.795 23.795 0 003.073-.174v1.492c-.933.28-2.095.42-3.487.425-.965 0-1.733-.153-2.307-.462zm10.33-11.027h1.933v4.968h4.887v-4.968h1.949v11.49h-1.949v-4.796h-4.887v4.796H98.49v-11.49zm16.76 0h2.451l3.77 11.49h-2.027l-.895-2.728h-4.188l-.88 2.725h-1.989l3.759-11.487h-.001zm2.828 7.037l-1.633-5.386-1.634 5.386h3.267zm7.626-7.037h1.814v11.49h-1.815l.001-11.49zm6.954 0h1.554l5.27 8.204v-8.204h1.946v11.49h-1.553l-5.271-8.2v8.2h-1.946v-11.49z"/></g><defs><clipPath id="clip0-394891"><path fill="#fff" transform="translate(.822 .402)" d="M0 0h141.326v33H0z"/></clipPath></defs></svg>