<svg width="24" height="25" fill="none" xmlns="http://www.w3.org/2000/svg"><path fill-rule="evenodd" clip-rule="evenodd" d="M12.36 8.474v-3.6l3.119-1.8 3.117 1.8v3.6l-3.117 1.8-3.118-1.8zm-.361.54l-3.118 1.8v3.6l3.118 1.8 3.117-1.8v-3.6L12 9.014zm0 1.247l2.037 1.177v2.353L12 14.967l-2.04-1.176v-2.353l2.038-1.177zm3.842 4.153l3.118 1.8 3.117-1.8v-3.6l-3.117-1.8-3.118 1.8v3.6zm3.118.553l-2.038-1.176v-2.353l2.038-1.177 2.037 1.177v2.353l-2.037 1.176zm-7.323 5.507v-3.6l-3.117-1.8-3.118 1.8v3.6l3.118 1.8 3.117-1.8zm-3.117.553l2.037-1.176v-2.353L8.52 16.32l-2.04 1.178v2.353l2.038 1.176zm-.363-6.613v-3.6l-3.117-1.8-3.118 1.8v3.6l3.118 1.8 3.117-1.8zm-1.08-2.976v2.353L5.04 14.967 3 13.791v-2.353l2.038-1.177 2.037 1.177zm1.443-1.164l3.117-1.8v-3.6l-3.117-1.8-3.118 1.8v3.6l3.118 1.8zm2.037-2.423L8.52 9.027 6.48 7.851V5.498L8.519 4.32l2.037 1.177V7.85zm1.805 12.623l3.118 1.8 3.117-1.8v-3.6l-3.117-1.8-3.118 1.8v3.6zm1.08-.623v-2.353l2.038-1.177 2.037 1.177v2.353l-2.037 1.176-2.038-1.176zm4.075-12L15.48 9.027l-2.04-1.176V5.498l2.038-1.177 2.037 1.177V7.85z" fill="#fff"/></svg>