<svg width="119" height="34" fill="none" xmlns="http://www.w3.org/2000/svg"><path d="M84.537 11.15c-.137 0-.343-.068-.89-.068-.48 0-.89.068-1.3.137-1.642.343-2.737 1.233-3.627 2.192v-1.918h-5.2v16.854h5.2v-6.988c0-.823.069-1.576.137-2.261s.274-1.302.616-1.781c.342-.48.752-.891 1.3-1.165.547-.274 1.368-.411 2.327-.411.41 0 .752 0 1.094.068.343.069.753.137 1.095.274v-4.727c-.205-.068-.479-.137-.752-.206zm13.89 0c-.137 0-.342-.068-.89-.068-.479 0-.889.068-1.3.137-1.642.343-2.737 1.233-3.626 2.192v-1.918h-5.2v16.854h5.2v-6.988c0-.823.068-1.576.137-2.261.068-.685.273-1.302.615-1.781.343-.48.753-.891 1.3-1.165.548-.274 1.37-.411 2.327-.411.41 0 .753 0 1.095.068.342.069.753.137 1.095.274v-4.727c-.206-.068-.48-.137-.753-.206zm-54.744-.274h-6.98V6.08h19.365v4.796h-6.98v17.538h-5.405V10.876zM70.645 25.47c-.82 1.095-1.847 1.849-3.147 2.466-1.3.548-2.6.89-3.969.89-1.3 0-2.532-.205-3.627-.617-1.163-.41-2.121-1.027-3.01-1.78a8.352 8.352 0 01-1.985-2.81 9.066 9.066 0 01-.753-3.63c0-1.371.274-2.536.753-3.632s1.163-1.987 1.984-2.809a8.78 8.78 0 013.011-1.781 10.612 10.612 0 013.627-.617c1.232 0 2.258.206 3.285.617a7.115 7.115 0 012.463 1.781c.684.754 1.232 1.713 1.574 2.81.342 1.095.547 2.329.547 3.63v1.645H59.355a4.212 4.212 0 001.368 2.397c.685.617 1.574.891 2.532.891a4.51 4.51 0 002.19-.548c.616-.411 1.095-.89 1.574-1.507l3.626 2.603zm-4.379-7.4c0-.89-.274-1.644-.89-2.26-.615-.617-1.368-.96-2.326-.96-.547 0-1.095.069-1.505.274-.411.205-.822.411-1.095.685-.343.274-.548.617-.753 1.028a2.423 2.423 0 00-.274 1.165h6.843v.068zm33.525 5.48c0-3.836 2.942-5.549 7.048-5.549 1.779 0 3.079.274 4.311.686v-.274c0-1.987-1.3-3.152-3.763-3.152-1.916 0-3.217.343-4.859.96l-1.232-3.7c1.916-.823 3.832-1.37 6.843-1.37 2.737 0 4.653.684 5.954 1.918 1.3 1.301 1.916 3.151 1.916 5.48v9.935h-4.79v-1.85c-1.232 1.302-2.874 2.192-5.338 2.192-3.421 0-6.09-1.85-6.09-5.275zm11.428-1.095v-.274a.862.862 0 00-.616-.823c-.753-.274-1.643-.41-2.601-.41-2.121 0-3.421.822-3.421 2.397v.069c0 1.301 1.095 2.055 2.737 2.055 2.327 0 3.901-1.233 3.901-3.014z" fill="#E6E6E6"/><path opacity=".4" d="M15.627 25.535c.821 3.014 3.696 5.275 5.2 5.207.07 0 5.544-1.028 8.623-6.098 2.326-3.905 1.574-7.741-1.642-7.81-1.164.069-13.686 2.946-12.18 8.7zM27.465 6.216c-2.395-2.123-5.61-3.357-9.1-3.357-2.054 0-3.97.411-5.68 1.234-.343.137-.616.274-.89.41-.205.138-.41.206-.616.343h.069c-.548.411-1.095.89-1.506 1.439-4.037 5.344 9.512 9.18 16.697 9.249 3.353 2.33 4.31-6.783 1.026-9.318z" fill="#E6E6E6"/><path d="M13.505 6.355c-1.847 2.809-8.006 4.727-9.032 4.453.068-.069.068-.137.137-.274.342-.685.752-1.302 1.231-1.919a17.957 17.957 0 013.216-3.22c.41-.274.753-.548 1.164-.753a4.69 4.69 0 012.053-.548c2.668 0 1.231 2.192 1.231 2.26zm-1.504 19.732c.137.89 0 4.316-.205 4.659-.137 0-.479 0-1.437-.48-.479-.274-.958-.617-1.437-.89a17.95 17.95 0 01-3.216-3.22c-.479-.617-.821-1.234-1.232-1.919-.342-.685-.684-1.37-.89-2.124-.205-.753-.41-1.507-.547-2.26a13.598 13.598 0 01-.205-2.398c0-.823.068-1.645.205-2.398a21.84 21.84 0 01.548-2.261c.068-.137.068-.274.137-.411 1.094 1.438 2.326 2.74 3.353 4.11 1.026 1.37 2.395 3.563 2.668 4.043 1.848 2.808 2.122 4.658 2.258 5.549zm20.529-8.771c0 1.918-.342 3.768-1.027 5.412-1.71 1.85-13.48-2.74-13.617-2.81-1.642-.684-6.5-2.877-6.911-6.233-.616-4.865 9.17-8.222 13.48-8.359.548 0 2.122 0 3.011.754 3.08 2.809 5.064 6.782 5.064 11.236zm-7.937 13.152c-1.3.617-2.669.138-2.327-1.096.684-2.398 6.843-4.864 8.212-5 .136 0 .205.068.136.205-1.437 2.534-3.49 4.59-6.021 5.891z" fill="#E6E6E6"/></svg>