<svg width="37" height="36" viewBox="0 0 37 36" fill="none" xmlns="http://www.w3.org/2000/svg">
<circle cx="18.5" cy="18" r="17" fill="white" stroke="black" stroke-width="2"/>
<g clip-path="url(#clip0-430898)">
<path d="M13.6687 27.9792C11.5824 27.9792 9.70006 26.7243 8.90006 24.7949C8.10006 22.8655 8.53928 20.6459 10.0216 19.1714L16.8922 12.3008L18.0059 13.4145L11.1432 20.2851C10.2099 21.1871 9.8334 22.5204 10.1628 23.7753C10.4922 25.0302 11.4726 26.0106 12.7275 26.34C13.9824 26.6694 15.3157 26.2929 16.2177 25.3674C16.2334 25.3518 16.8765 24.7086 16.8765 24.7086L17.9903 25.8223L17.3314 26.489C16.351 27.438 15.0412 27.9792 13.6687 27.9792Z" fill="black"/>
<path d="M23.0805 17.491L16.2099 10.6204C15.3001 9.7184 13.9825 9.36546 12.7433 9.69487C11.504 10.0243 10.5393 10.9968 10.2021 12.2282C9.87267 13.4674 10.2256 14.7851 11.1276 15.6949L11.7864 16.3537L10.6727 17.4674L10.0138 16.8086C8.71188 15.5066 8.20208 13.6008 8.68051 11.8204C9.15894 10.04 10.5472 8.64389 12.3276 8.1733C14.108 7.70272 16.0138 8.20468 17.3158 9.50664L24.1942 16.3772L23.0805 17.491Z" fill="black"/>
<path d="M20.1235 23.702L19.0098 22.5961L25.8804 15.7255C27.2451 14.3216 27.2215 12.0785 25.8411 10.6902C24.4529 9.30199 22.2176 9.2863 20.8058 10.651L20.147 11.3098L19.0333 10.1961L19.6921 9.53728C20.9941 8.23532 22.9 7.72551 24.6804 8.20395C26.4607 8.68238 27.8568 10.0706 28.3274 11.851C28.8058 13.6314 28.296 15.5373 26.9941 16.8392L20.1235 23.702Z" fill="black"/>
<path d="M23.3402 28.0017C21.9677 28.0096 20.6579 27.4606 19.6932 26.488L12.8226 19.6174L13.9363 18.5037L20.8069 25.3743C22.2108 26.7782 24.4775 26.7782 25.8814 25.3743C27.2853 23.9704 27.2853 21.7037 25.8814 20.2998L25.2226 19.641L26.3363 18.5272L26.9951 19.1861C28.4696 20.6606 28.9167 22.8802 28.1167 24.8096C27.3088 26.739 25.4265 28.0017 23.3402 28.0017Z" fill="black"/>
</g>
<defs>
<clipPath id="clip0-430898">
<rect width="20" height="20" fill="white" transform="translate(8.5 8)"/>
</clipPath>
</defs>
</svg>