<svg width="36" height="36" viewBox="0 0 36 36" fill="none" xmlns="http://www.w3.org/2000/svg">
<circle cx="18" cy="18" r="17" fill="white" stroke="black" stroke-width="2"/>
<path fill-rule="evenodd" clip-rule="evenodd" d="M21.3894 14.4759C20.3183 14.0555 19.1648 13.8359 17.9998 13.8359C15.5512 13.8359 13.2481 14.7929 11.5147 16.5304C9.78883 18.2603 8.82997 20.5583 8.81454 23.0009L8.8125 23.3289L9.09881 23.491C10.4787 24.2726 12.0392 24.6838 13.6205 24.6838C13.664 24.6838 13.7078 24.6835 13.7514 24.6828C15.1298 24.663 16.4935 24.3331 17.7298 23.7241C17.3399 23.507 16.9664 23.2626 16.6112 22.9931C14.4564 23.8382 12.0142 23.734 9.94736 22.6755C10.1484 18.3892 13.6935 14.9557 17.9998 14.9557C19.1975 14.9557 20.3805 15.2194 21.449 15.7206C21.4627 15.3056 21.4429 14.8897 21.3894 14.4759Z" fill="black"/>
<path fill-rule="evenodd" clip-rule="evenodd" d="M27.1846 22.9249C27.1518 19.8881 25.6663 17.1174 23.19 15.4297C23.1919 15.8741 23.162 16.3182 23.1007 16.7596C24.8603 18.1898 25.933 20.2958 26.0503 22.6031C22.2548 24.5499 17.5214 23.1865 15.3653 19.4661C14.7829 18.4612 14.4258 17.3376 14.3209 16.1896C13.9546 16.3884 13.6047 16.6172 13.2744 16.8737C13.4486 17.9786 13.8271 19.0515 14.3919 20.026C15.6184 22.1423 17.5902 23.6596 19.944 24.2982C20.7426 24.5149 21.5546 24.6221 22.3621 24.6221C23.9354 24.6221 25.4919 24.2151 26.9003 23.4177L27.188 23.2547L27.1846 22.9249Z" fill="black"/>
<path fill-rule="evenodd" clip-rule="evenodd" d="M18.3246 7.50952L18.0407 7.34375L17.7567 7.50926C16.3538 8.32655 15.1883 9.49834 14.3861 10.8978C13.6933 12.1065 13.2836 13.4603 13.1875 14.8423C13.5715 14.6151 13.9716 14.4153 14.3853 14.2445C14.7417 11.9663 16.0725 9.90739 18.0401 8.64919C21.654 10.9623 22.8425 15.7583 20.6718 19.5038C20.0839 20.5181 19.2801 21.3951 18.3278 22.0685C18.6835 22.2844 19.057 22.4718 19.4451 22.6286C20.3254 21.9181 21.0749 21.0477 21.6452 20.0636C24.1796 15.6906 22.6899 10.0589 18.3246 7.50952Z" fill="black"/>
<path fill-rule="evenodd" clip-rule="evenodd" d="M18.0003 17.063C17.4835 17.063 17.0631 17.4835 17.0631 18.0003C17.0631 18.5172 17.4835 18.9376 18.0003 18.9376C18.5172 18.9376 18.9377 18.5172 18.9377 18.0003C18.9377 17.4835 18.5172 17.063 18.0003 17.063ZM18.0004 20.0632C16.8628 20.0632 15.9375 19.1378 15.9375 18.0003C15.9375 16.8629 16.8628 15.9375 18.0004 15.9375C19.1379 15.9375 20.0633 16.8629 20.0633 18.0003C20.0633 19.1378 19.1379 20.0632 18.0004 20.0632Z" fill="black"/>
</svg>