<svg width="168" height="34" viewBox="0 0 168 34" fill="none" xmlns="http://www.w3.org/2000/svg">
<g clip-path="url(#clip0-963445)">
<path d="M10.1248 14.2278L16.6497 7.7032L23.178 14.2313L26.9747 10.4347L16.6497 0.109375L6.32812 10.4312L10.1248 14.2278Z" fill="#E6E6E6"/>
<path d="M7.44892 16.9001L3.65234 13.1035L-0.144423 16.9003L3.65216 20.6969L7.44892 16.9001Z" fill="#E6E6E6"/>
<path d="M10.1264 19.5852L16.6513 26.1099L23.1794 19.582L26.9782 23.3766L26.9764 23.3787L16.6513 33.7037L6.32953 23.3821L6.32422 23.3768L10.1264 19.5852Z" fill="#E6E6E6"/>
<path d="M29.6603 20.6913L33.457 16.8945L29.6605 13.098L25.8637 16.8947L29.6603 20.6913Z" fill="#E6E6E6"/>
<path d="M20.5024 16.9015H20.504L16.6514 13.0488L13.8042 15.896H13.804L13.477 16.2232L12.8022 16.898L12.7969 16.9033L12.8022 16.9089L16.6514 20.7581L20.504 16.9054L20.5059 16.9033L20.5024 16.9015Z" fill="#E6E6E6"/>
<path d="M39.375 8.24609H47.6325C49.682 8.24609 51.2317 8.77206 52.2821 9.82398C53.0949 10.6387 53.5012 11.6484 53.5012 12.8529L53.5012 12.9039C53.5012 13.4128 53.4383 13.8626 53.3117 14.2527C53.1854 14.6434 53.0166 14.995 52.8056 15.3089C52.5952 15.6231 52.3505 15.8988 52.0724 16.1361C51.7941 16.3738 51.495 16.5776 51.1747 16.747C52.2048 17.1376 53.0158 17.6675 53.6071 18.3378C54.198 19.0084 54.4939 19.9375 54.4939 21.125L54.4939 21.1757C54.4939 21.9904 54.3374 22.7029 54.024 23.3141C53.7106 23.9247 53.2615 24.4339 52.6769 24.8413C52.0923 25.2486 51.3894 25.5538 50.5678 25.7576C49.7462 25.9611 48.8357 26.0628 47.8366 26.0628H39.375L39.375 8.24609ZM46.807 15.449C47.6726 15.449 48.3599 15.301 48.8686 15.0037C49.3776 14.7068 49.6321 14.2273 49.6321 13.5657L49.6321 13.5147C49.6321 12.9211 49.4113 12.4673 48.9702 12.1531C48.5289 11.8392 47.8926 11.6821 47.0614 11.6821H43.1926L43.1926 15.449H46.807ZM47.8507 22.627C48.716 22.627 49.3943 22.4704 49.8868 22.1563C50.3788 21.8423 50.6251 21.3543 50.6251 20.6925L50.6251 20.6418C50.6251 20.0479 50.3958 19.5771 49.9378 19.229C49.4795 18.8816 48.7415 18.7075 47.7233 18.7075H43.1926L43.1926 22.6273H47.8507L47.8507 22.627Z" fill="#E6E6E6"/>
<path d="M59.4102 8.24609H63.3302L63.3302 26.0633H59.4102L59.4102 8.24609Z" fill="#E6E6E6"/>
<path d="M69.2656 8.24609H72.8794L81.2282 19.2165L81.2282 8.24609H85.0971L85.0971 26.0633H81.763L73.1342 14.7368L73.1342 26.0633H69.2656L69.2656 8.24609Z" fill="#E6E6E6"/>
<path d="M96.9686 8.12109H100.583L108.219 26.0654H104.121L102.492 22.0695H94.9576L93.3288 26.0654H89.332L96.9686 8.12109ZM101.092 18.6074L98.7245 12.8298L96.358 18.6074H101.092Z" fill="#E6E6E6"/>
<path d="M112.449 8.24805H116.064L124.412 19.2184L124.412 8.24805H128.281L128.281 26.0652H124.947L116.318 14.7387L116.318 26.0652H112.449L112.449 8.24805Z" fill="#E6E6E6"/>
<path d="M142.392 26.3594C141.084 26.3594 139.872 26.1217 138.752 25.6469C137.631 25.1722 136.664 24.5228 135.85 23.6996C135.035 22.8767 134.399 21.9052 133.941 20.7854C133.483 19.6652 133.254 18.4689 133.254 17.1962L133.254 17.1455C133.254 15.8728 133.483 14.6811 133.941 13.5694C134.399 12.4581 135.035 11.4823 135.85 10.6424C136.664 9.8025 137.64 9.1404 138.777 8.6569C139.913 8.17339 141.17 7.93164 142.544 7.93164C143.375 7.93164 144.134 7.99984 144.822 8.13518C145.509 8.27131 146.132 8.4576 146.693 8.69511C147.253 8.93288 147.77 9.22134 148.246 9.56048C148.72 9.90015 149.162 10.2733 149.569 10.6806L147.075 13.5567C146.378 12.9291 145.67 12.4366 144.949 12.0804C144.228 11.7243 143.418 11.546 142.518 11.546C141.772 11.546 141.08 11.6903 140.444 11.9788C139.808 12.2673 139.261 12.6658 138.802 13.1748C138.345 13.6838 137.988 14.2737 137.733 14.9438C137.479 15.6144 137.352 16.3311 137.352 17.0946L137.352 17.1453C137.352 17.9087 137.479 18.6303 137.733 19.3086C137.988 19.9877 138.339 20.5813 138.79 21.0903C139.239 21.5992 139.782 22.0026 140.418 22.2996C141.055 22.5968 141.755 22.7448 142.518 22.7448C143.537 22.7448 144.397 22.5583 145.102 22.1849C145.806 21.8121 146.506 21.3028 147.202 20.6577L149.696 23.1777C149.238 23.6699 148.762 24.1112 148.271 24.5011C147.779 24.8917 147.24 25.2266 146.654 25.5068C146.069 25.7865 145.428 25.9991 144.733 26.1429C144.037 26.287 143.256 26.3594 142.392 26.3594Z" fill="#E6E6E6"/>
<path d="M154.309 8.24805H167.722L167.722 11.7353H158.178L158.178 15.3496H166.577L166.577 18.8366H158.178L158.178 22.5783H167.85L167.85 26.0652H154.309L154.309 8.24805Z" fill="#E6E6E6"/>
</g>
<defs>
<clipPath id="clip0-963445">
<rect width="167.911" height="33.6327" fill="white" transform="translate(0 0.101562) scale(0.998888 0.999027)"/>
</clipPath>
</defs>
</svg>