<svg width="191" height="34" viewBox="0 0 191 34" fill="none" xmlns="http://www.w3.org/2000/svg">
<g clip-path="url(#clip0-040255)">
<path d="M26.29 27.1017H24.221L21.744 24.8287L21.744 23.6631L24.3084 21.2152L24.3084 17.3394L27.6597 15.1538L31.4771 18.0388L26.29 27.1017ZM17.7225 20.9821L18.1014 17.3394L16.8483 14.0756H24.2501L23.0262 17.3394L23.3759 20.9821H20.5201H17.7225ZM19.4127 24.8287L16.9357 27.1308H14.8376L9.62131 18.0388L13.4679 15.183L16.8483 17.3394L16.8483 21.2152L19.4127 23.6631L19.4127 24.8287ZM14.8084 7.34403H26.2609L27.6305 13.1723H13.4679L14.8084 7.34403ZM20.5492 0.0878906L6.00781 8.48053L6.00781 25.2658L20.5492 33.6584L35.0906 25.2658L35.0906 8.48053L20.5492 0.0878906Z" fill="#E6E6E6"/>
<path d="M51.4116 24.6544C47.565 24.6544 44.7383 21.6529 44.7383 17.952C44.7383 14.2511 47.5941 11.1621 51.4407 11.1621C53.8886 11.1621 55.4039 12.0655 56.5987 13.3768L54.7628 15.3584C53.8594 14.3968 52.8978 13.7557 51.4116 13.7557C49.2552 13.7557 47.6815 15.6207 47.6815 17.8937C47.6815 20.225 49.2843 22.09 51.5573 22.09C52.9561 22.09 53.976 21.4198 54.9085 20.4873L56.6861 22.2649C55.4039 23.6345 53.9177 24.6544 51.4116 24.6544Z" fill="#E6E6E6"/>
<path d="M62.3083 24.6538H59.3359L59.3359 11.1906H62.3083L62.3083 14.3379C63.1243 12.4146 64.6105 11.0741 66.8835 11.1906L66.8835 14.3379H66.7086C64.1151 14.3379 62.3083 16.0281 62.3083 19.4667L62.3083 24.6538Z" fill="#E6E6E6"/>
<path d="M82.4148 11.1309L75.858 28.2658H72.8565L74.2844 24.6523L68.6602 11.1309H71.8365L75.654 21.1263L79.3258 11.1309H82.4148Z" fill="#E6E6E6"/>
<path d="M91.1577 13.7244C89.1469 13.7244 87.3985 15.3563 87.3985 17.8916C87.3985 20.4269 89.1761 22.0588 91.1577 22.0588C93.1976 22.0588 94.8586 20.456 94.8586 17.8916C94.8586 15.3272 93.1684 13.7244 91.1577 13.7244ZM91.8279 24.6232C89.7006 24.6232 88.3601 23.545 87.4568 22.3502L87.4568 28.2658H84.4844L84.4844 11.1309H87.4568L87.4568 13.5496C88.4184 12.2091 89.7589 11.1309 91.8279 11.1309C94.8878 11.1309 97.8601 13.5496 97.8601 17.8624C97.8601 22.1753 94.9169 24.6232 91.8279 24.6232Z" fill="#E6E6E6"/>
<path d="M104.358 13.9577L104.358 20.3104C104.358 21.4469 104.941 21.9132 105.961 21.9132H107.127L107.127 24.565H105.087C102.93 24.565 101.386 23.6034 101.386 20.7767L101.386 13.9577H99.7539L99.7539 11.4224H101.386L101.386 7.86719H104.358L104.358 11.4224H107.127L107.127 13.9577H104.358Z" fill="#E6E6E6"/>
<path d="M116.481 13.7265C114.091 13.7265 112.576 15.5916 112.576 17.8646C112.576 20.1667 114.208 22.0609 116.51 22.0609C118.9 22.0609 120.415 20.1959 120.415 17.9228C120.473 15.6207 118.812 13.7265 116.481 13.7265ZM116.481 24.6544C112.547 24.6544 109.633 21.6529 109.633 17.952C109.633 14.2219 112.576 11.1621 116.539 11.1621C120.502 11.1621 123.417 14.1636 123.417 17.8937C123.417 21.5655 120.502 24.6544 116.481 24.6544Z" fill="#E6E6E6"/>
<path d="M151.77 13.7265C149.38 13.7265 147.865 15.5916 147.865 17.8646C147.865 20.1667 149.497 22.0609 151.799 22.0609C154.189 22.0609 155.704 20.1959 155.704 17.9228C155.733 15.6207 154.101 13.7265 151.77 13.7265ZM151.77 24.6544C147.836 24.6544 144.922 21.6529 144.922 17.952C144.922 14.2219 147.865 11.1621 151.828 11.1621C155.792 11.1621 158.706 14.1636 158.706 17.8937C158.706 21.5655 155.762 24.6544 151.77 24.6544Z" fill="#E6E6E6"/>
<path d="M176.31 11.1309C179.136 11.1309 180.856 12.9085 180.856 16.0848L180.856 24.6232H177.883L177.883 16.9882C177.883 14.9192 176.922 13.841 175.261 13.841C173.658 13.841 172.492 14.9775 172.492 17.0465L172.492 24.6523H169.52L169.52 16.9882C169.52 14.9775 168.529 13.841 166.897 13.841C165.265 13.841 164.129 15.0649 164.129 17.0756L164.129 24.6523H161.156L161.156 11.16H164.129L164.129 13.3747C164.974 12.2382 166.081 11.16 168.063 11.16C169.928 11.16 171.21 12.0634 171.909 13.433C172.988 12.0342 174.357 11.1309 176.31 11.1309Z" fill="#E6E6E6"/>
<path d="M128.865 21.9133L128.865 23.4286L128.778 23.5743L127.466 24.3029H127.292L126.009 23.5743L125.922 23.4286L125.922 21.9133L126.009 21.7676L127.292 21.0391H127.466L128.778 21.7676L128.865 21.9133Z" fill="#E6E6E6"/>
<path d="M137.87 24.625C134.024 24.5376 131.255 21.4778 131.313 17.7769C131.372 14.076 134.286 11.0453 138.162 11.1327C140.609 11.191 142.125 12.1235 143.29 13.464L141.425 15.4164C140.551 14.4548 139.589 13.7554 138.103 13.7263C135.947 13.6971 134.344 15.5039 134.315 17.806C134.257 20.1373 135.83 22.0315 138.103 22.0606C139.502 22.0898 140.551 21.4487 141.484 20.5161L143.232 22.3229C141.921 23.6925 140.405 24.6833 137.87 24.625Z" fill="#E6E6E6"/>
</g>
<defs>
<clipPath id="clip0-040255">
<rect width="190" height="33.8037" fill="white" transform="translate(0.121094)"/>
</clipPath>
</defs>
</svg>