<svg width="100" height="34" viewBox="0 0 100 34" fill="none" xmlns="http://www.w3.org/2000/svg">
<g clip-path="url(#clip0-472220)">
<path d="M51.4835 16.8717C51.4835 17.9573 51.3153 18.9818 50.9636 19.9298C50.6119 20.8931 50.1226 21.7188 49.4651 22.4374C48.8076 23.1561 48.0125 23.7218 47.0492 24.1499C46.0859 24.5781 45.0003 24.7769 43.7771 24.7769C42.5538 24.7769 41.4682 24.5628 40.5049 24.1499C39.5416 23.7218 38.7465 23.1561 38.089 22.4374C37.4315 21.7188 36.9269 20.8778 36.5905 19.9298C36.2541 18.9665 36.0859 17.9573 36.0859 16.8717C36.0859 15.8013 36.2541 14.7769 36.5905 13.8136C36.9269 12.8503 37.4315 12.0093 38.089 11.2906C38.7465 10.572 39.5569 10.0062 40.5049 9.57808C41.4682 9.14995 42.5538 8.95117 43.7771 8.95117C45.0003 8.95117 46.0859 9.16524 47.0492 9.57808C48.0125 10.0062 48.8076 10.572 49.4651 11.2906C50.1226 12.0093 50.6119 12.8503 50.9636 13.8136C51.3153 14.7769 51.4835 15.8013 51.4835 16.8717ZM43.7924 22.2692C44.5416 22.2692 45.1991 22.1316 45.7495 21.8564C46.3153 21.5811 46.774 21.1989 47.1563 20.7249C47.5385 20.2356 47.8138 19.6698 47.9973 19.0123C48.1807 18.3548 48.2725 17.6362 48.2725 16.8717C48.2725 16.1071 48.1807 15.3885 47.9973 14.731C47.8138 14.0735 47.5385 13.5077 47.1563 13.0184C46.774 12.5292 46.3153 12.1622 45.7495 11.887C45.1838 11.6117 44.5416 11.4741 43.7924 11.4741C43.0431 11.4741 42.3856 11.6117 41.8352 11.887C41.2694 12.1622 40.8107 12.5444 40.4284 13.0184C40.0462 13.5077 39.771 14.0735 39.5875 14.731C39.404 15.3885 39.3122 16.1071 39.3122 16.8717C39.3122 17.6362 39.404 18.3548 39.5875 19.0123C39.771 19.6698 40.0462 20.2356 40.4284 20.7249C40.8107 21.2142 41.2694 21.5811 41.8352 21.8564C42.3856 22.1316 43.0431 22.2692 43.7924 22.2692ZM53.5018 24.5169L53.5018 9.2264H56.7128L56.7128 16.5659L62.0187 9.2264H65.7343L60.1073 16.7799L66.1165 24.5169H62.141L56.6976 17.0093L56.6976 24.5169H53.5018ZM67.4009 9.2264H76.5905L76.5905 11.7799H70.6272L70.6272 15.4802H76.3153L76.3153 18.0185H70.6272L70.6272 21.9634H76.667L76.667 24.5169H67.4162L67.4162 9.2264H67.4009ZM88.0431 9.2264H91.5294L86.4988 16.8258L91.6211 24.5169H88.1043L84.8015 19.3029L81.4988 24.5169H77.982L83.1043 16.8258L78.0737 9.2264H81.5599L84.8015 14.3946L88.0431 9.2264Z" fill="#E6E6E6"/>
<path opacity="0.85" d="M16.2066 15.3723C20.2601 15.3723 23.5461 12.0863 23.5461 8.03281C23.5461 3.97934 20.2601 0.693359 16.2066 0.693359C12.1532 0.693359 8.86719 3.97934 8.86719 8.03281C8.86719 12.0863 12.1532 15.3723 16.2066 15.3723Z" fill="#E6E6E6"/>
<path opacity="0.75" d="M16.2066 33.1086C20.2601 33.1086 23.5461 29.8226 23.5461 25.7691C23.5461 21.7157 20.2601 18.4297 16.2066 18.4297C12.1532 18.4297 8.86719 21.7157 8.86719 25.7691C8.86719 29.8226 12.1532 33.1086 16.2066 33.1086Z" fill="#E6E6E6"/>
<path opacity="0.8" d="M25.0777 24.2414C29.1312 24.2414 32.4172 20.9554 32.4172 16.9019C32.4172 12.8485 29.1312 9.5625 25.0777 9.5625C21.0243 9.5625 17.7383 12.8485 17.7383 16.9019C17.7383 20.9554 21.0243 24.2414 25.0777 24.2414Z" fill="#E6E6E6"/>
<path opacity="0.7" d="M7.33945 24.2414C11.3929 24.2414 14.6789 20.9554 14.6789 16.9019C14.6789 12.8485 11.3929 9.5625 7.33945 9.5625C3.28598 9.5625 -9.59887e-09 12.8485 -2.14397e-08 16.9019C-3.32805e-08 20.9554 3.28598 24.2414 7.33945 24.2414Z" fill="#E6E6E6"/>
</g>
<defs>
<clipPath id="clip0-472220">
<rect width="100" height="32.4159" fill="white" transform="translate(0 0.693359)"/>
</clipPath>
</defs>
</svg>