<svg width="143" height="34" viewBox="0 0 143 34" fill="none" xmlns="http://www.w3.org/2000/svg">
<g clip-path="url(#clip0-394891)">
<path d="M0.822266 32.7927L21.8892 23.9028L15.2246 17.1278L0.822266 32.7927ZM8.56005 10.3613L15.2246 17.1278L27.129 2.55469L8.56005 10.3613Z" fill="#E6E6E6"/>
<path d="M37.6632 13.6545H34.3848L34.3848 11.9277H42.8521L42.8521 13.6574H39.5844L39.5844 23.4182H37.664L37.6632 13.6545ZM46.7827 11.9277H48.7154L48.7154 16.8957H53.603L53.603 11.9277H55.5514L55.5514 23.4182H53.603L53.603 18.6224H48.7154L48.7154 23.4182H46.7834L46.7827 11.9277ZM62.0883 22.9705C61.4268 22.67 60.9275 22.1011 60.5918 21.2632C60.2553 20.4267 60.0875 19.1942 60.0875 17.5664C60.0875 15.9444 60.2582 14.704 60.599 13.8453C60.9397 12.9873 61.4419 12.4012 62.1041 12.0892C62.7655 11.7807 63.6536 11.6257 64.7663 11.625C65.8797 11.625 66.775 11.7792 67.4522 12.0892C68.1194 12.3976 68.6201 12.9787 68.9573 13.8317C69.2945 14.6847 69.4623 15.9279 69.4616 17.5614C69.4616 19.1842 69.2909 20.4166 68.9487 21.2588C68.6072 22.1011 68.1086 22.6714 67.4522 22.9698C66.7958 23.2683 65.9012 23.4175 64.7663 23.4182C63.6328 23.4182 62.7397 23.2697 62.0883 22.9698L62.0883 22.9705ZM66.4285 21.36C66.8116 21.1505 67.0878 20.756 67.2556 20.1749C67.4235 19.5945 67.5082 18.7222 67.5082 17.5585C67.5082 16.3548 67.4214 15.4544 67.247 14.8576C67.0734 14.2607 66.7979 13.8625 66.4206 13.6631C66.0425 13.4658 65.4916 13.3668 64.7663 13.3661C64.0632 13.3661 63.5223 13.468 63.1435 13.6717C62.7655 13.8755 62.4871 14.2729 62.3092 14.8647C62.1299 15.4559 62.0409 16.354 62.0409 17.5585C62.0409 18.7308 62.122 19.6031 62.2848 20.1749C62.447 20.7473 62.7196 21.1426 63.1019 21.36C63.48 21.5695 64.0367 21.6742 64.772 21.6742C65.493 21.6742 66.0454 21.5695 66.4285 21.36ZM74.2997 11.9277H79.0008C79.9829 11.9277 80.7612 12.1846 81.3359 12.6989C81.9098 13.2133 82.1975 14.1445 82.1975 15.4917C82.1975 16.5097 82.0174 17.2515 81.6565 17.7178C81.2957 18.186 80.8015 18.534 80.239 18.7157L82.4636 23.4182H80.5051L78.4993 18.9962C77.8623 18.9962 77.1047 18.9854 76.2273 18.9639L76.2273 23.4182H74.2997L74.2997 11.9277ZM78.6715 17.4567C79.1737 17.4567 79.5618 17.3132 79.8387 17.0284C80.1149 16.7436 80.2548 16.2321 80.2562 15.4953C80.2562 14.7887 80.117 14.3045 79.8387 14.0412C79.5603 13.7786 79.1715 13.6488 78.6715 13.6523H76.2273L76.2273 17.4509L78.6715 17.4567ZM88.1611 22.9555C87.5879 22.6463 87.1496 22.0623 86.8476 21.2043C86.5449 20.3456 86.3942 19.1052 86.3949 17.4832C86.3949 15.943 86.5484 14.7471 86.8555 13.8948C87.1632 13.0426 87.6138 12.4514 88.2078 12.12C88.8003 11.79 89.5679 11.625 90.5113 11.625C91.1311 11.6257 91.7502 11.6752 92.3622 11.7749C92.8995 11.856 93.4311 11.9737 93.9526 12.1279L93.9526 13.6222C93.6456 13.5605 93.2073 13.5031 92.6384 13.4508C92.0598 13.3978 91.479 13.3715 90.898 13.3718C90.2222 13.3718 89.7021 13.4795 89.3384 13.694C88.9739 13.9077 88.7107 14.3088 88.5478 14.8956C88.3835 15.4817 88.3017 16.354 88.3017 17.5126C88.3017 18.6712 88.3785 19.5457 88.532 20.1354C88.6855 20.723 88.9417 21.1254 89.2996 21.3442C89.6583 21.563 90.1863 21.6728 90.8822 21.6742C91.9091 21.6829 92.9354 21.6252 93.9548 21.5013L93.9548 22.9935C93.0222 23.2726 91.86 23.4139 90.4683 23.4182C89.5034 23.4182 88.735 23.2647 88.1611 22.9555ZM98.4901 11.9277H100.424L100.424 16.8957H105.311L105.311 11.9277H107.26L107.26 23.4182H105.311L105.311 18.6224H100.424L100.424 23.4182H98.4901L98.4901 11.9277ZM115.251 11.9277H117.702L121.472 23.4182H119.445L118.55 20.69H114.362L113.482 23.4153H111.493L115.252 11.9277H115.251ZM118.079 18.9653L116.446 13.5792L114.812 18.9653H118.079ZM125.705 11.9277H127.519L127.519 23.4182H125.704L125.705 11.9277ZM132.659 11.9277H134.213L139.483 20.1325L139.483 11.9277H141.429L141.429 23.4182H139.876L134.605 15.2184L134.605 23.4182H132.659L132.659 11.9277Z" fill="#E6E6E6"/>
</g>
<defs>
<clipPath id="clip0-394891">
<rect width="141.326" height="33" fill="white" transform="translate(0.822266 0.402344)"/>
</clipPath>
</defs>
</svg>